G04 #@! TF.GenerationSoftware,KiCad,Pcbnew,(5.0.0)*
G04 #@! TF.CreationDate,2020-03-26T00:34:20-06:00*
G04 #@! TF.ProjectId,RGB_LEDController,5247425F4C4544436F6E74726F6C6C65,rev?*
G04 #@! TF.SameCoordinates,Original*
G04 #@! TF.FileFunction,Legend,Top*
G04 #@! TF.FilePolarity,Positive*
%FSLAX46Y46*%
G04 Gerber Fmt 4.6, Leading zero omitted, Abs format (unit mm)*
G04 Created by KiCad (PCBNEW (5.0.0)) date 03/26/20 00:34:20*
%MOMM*%
%LPD*%
G01*
G04 APERTURE LIST*
%ADD10C,0.150000*%
%ADD11C,0.250000*%
%ADD12C,0.300000*%
%ADD13C,0.200000*%
%ADD14C,0.120000*%
%ADD15C,0.010000*%
G04 APERTURE END LIST*
D10*
X132238095Y-113785714D02*
X132000000Y-113785714D01*
X132000000Y-112357142D01*
X132238095Y-112357142D01*
X133190476Y-113452380D02*
X132857142Y-112976190D01*
X132619047Y-113452380D02*
X132619047Y-112452380D01*
X133000000Y-112452380D01*
X133095238Y-112500000D01*
X133142857Y-112547619D01*
X133190476Y-112642857D01*
X133190476Y-112785714D01*
X133142857Y-112880952D01*
X133095238Y-112928571D01*
X133000000Y-112976190D01*
X132619047Y-112976190D01*
X133952380Y-112928571D02*
X134095238Y-112976190D01*
X134142857Y-113023809D01*
X134190476Y-113119047D01*
X134190476Y-113261904D01*
X134142857Y-113357142D01*
X134095238Y-113404761D01*
X134000000Y-113452380D01*
X133619047Y-113452380D01*
X133619047Y-112452380D01*
X133952380Y-112452380D01*
X134047619Y-112500000D01*
X134095238Y-112547619D01*
X134142857Y-112642857D01*
X134142857Y-112738095D01*
X134095238Y-112833333D01*
X134047619Y-112880952D01*
X133952380Y-112928571D01*
X133619047Y-112928571D01*
X135142857Y-113452380D02*
X134571428Y-113452380D01*
X134857142Y-113452380D02*
X134857142Y-112452380D01*
X134761904Y-112595238D01*
X134666666Y-112690476D01*
X134571428Y-112738095D01*
X135476190Y-113785714D02*
X135714285Y-113785714D01*
X135714285Y-112357142D01*
X135476190Y-112357142D01*
X136523809Y-113785714D02*
X136285714Y-113785714D01*
X136285714Y-112357142D01*
X136523809Y-112357142D01*
X137476190Y-113452380D02*
X137142857Y-112976190D01*
X136904761Y-113452380D02*
X136904761Y-112452380D01*
X137285714Y-112452380D01*
X137380952Y-112500000D01*
X137428571Y-112547619D01*
X137476190Y-112642857D01*
X137476190Y-112785714D01*
X137428571Y-112880952D01*
X137380952Y-112928571D01*
X137285714Y-112976190D01*
X136904761Y-112976190D01*
X138238095Y-112928571D02*
X138380952Y-112976190D01*
X138428571Y-113023809D01*
X138476190Y-113119047D01*
X138476190Y-113261904D01*
X138428571Y-113357142D01*
X138380952Y-113404761D01*
X138285714Y-113452380D01*
X137904761Y-113452380D01*
X137904761Y-112452380D01*
X138238095Y-112452380D01*
X138333333Y-112500000D01*
X138380952Y-112547619D01*
X138428571Y-112642857D01*
X138428571Y-112738095D01*
X138380952Y-112833333D01*
X138333333Y-112880952D01*
X138238095Y-112928571D01*
X137904761Y-112928571D01*
X138857142Y-112547619D02*
X138904761Y-112500000D01*
X139000000Y-112452380D01*
X139238095Y-112452380D01*
X139333333Y-112500000D01*
X139380952Y-112547619D01*
X139428571Y-112642857D01*
X139428571Y-112738095D01*
X139380952Y-112880952D01*
X138809523Y-113452380D01*
X139428571Y-113452380D01*
X139761904Y-113785714D02*
X140000000Y-113785714D01*
X140000000Y-112357142D01*
X139761904Y-112357142D01*
X132380952Y-112185714D02*
X132142857Y-112185714D01*
X132142857Y-110757142D01*
X132380952Y-110757142D01*
X133333333Y-111852380D02*
X133000000Y-111376190D01*
X132761904Y-111852380D02*
X132761904Y-110852380D01*
X133142857Y-110852380D01*
X133238095Y-110900000D01*
X133285714Y-110947619D01*
X133333333Y-111042857D01*
X133333333Y-111185714D01*
X133285714Y-111280952D01*
X133238095Y-111328571D01*
X133142857Y-111376190D01*
X132761904Y-111376190D01*
X133714285Y-111566666D02*
X134190476Y-111566666D01*
X133619047Y-111852380D02*
X133952380Y-110852380D01*
X134285714Y-111852380D01*
X134809523Y-110852380D02*
X134904761Y-110852380D01*
X135000000Y-110900000D01*
X135047619Y-110947619D01*
X135095238Y-111042857D01*
X135142857Y-111233333D01*
X135142857Y-111471428D01*
X135095238Y-111661904D01*
X135047619Y-111757142D01*
X135000000Y-111804761D01*
X134904761Y-111852380D01*
X134809523Y-111852380D01*
X134714285Y-111804761D01*
X134666666Y-111757142D01*
X134619047Y-111661904D01*
X134571428Y-111471428D01*
X134571428Y-111233333D01*
X134619047Y-111042857D01*
X134666666Y-110947619D01*
X134714285Y-110900000D01*
X134809523Y-110852380D01*
X135476190Y-112185714D02*
X135714285Y-112185714D01*
X135714285Y-110757142D01*
X135476190Y-110757142D01*
X136523809Y-112185714D02*
X136285714Y-112185714D01*
X136285714Y-110757142D01*
X136523809Y-110757142D01*
X137476190Y-111852380D02*
X137142857Y-111376190D01*
X136904761Y-111852380D02*
X136904761Y-110852380D01*
X137285714Y-110852380D01*
X137380952Y-110900000D01*
X137428571Y-110947619D01*
X137476190Y-111042857D01*
X137476190Y-111185714D01*
X137428571Y-111280952D01*
X137380952Y-111328571D01*
X137285714Y-111376190D01*
X136904761Y-111376190D01*
X137857142Y-111566666D02*
X138333333Y-111566666D01*
X137761904Y-111852380D02*
X138095238Y-110852380D01*
X138428571Y-111852380D01*
X139285714Y-111852380D02*
X138714285Y-111852380D01*
X139000000Y-111852380D02*
X139000000Y-110852380D01*
X138904761Y-110995238D01*
X138809523Y-111090476D01*
X138714285Y-111138095D01*
X139619047Y-112185714D02*
X139857142Y-112185714D01*
X139857142Y-110757142D01*
X139619047Y-110757142D01*
X132380952Y-110585714D02*
X132142857Y-110585714D01*
X132142857Y-109157142D01*
X132380952Y-109157142D01*
X133333333Y-110252380D02*
X133000000Y-109776190D01*
X132761904Y-110252380D02*
X132761904Y-109252380D01*
X133142857Y-109252380D01*
X133238095Y-109300000D01*
X133285714Y-109347619D01*
X133333333Y-109442857D01*
X133333333Y-109585714D01*
X133285714Y-109680952D01*
X133238095Y-109728571D01*
X133142857Y-109776190D01*
X132761904Y-109776190D01*
X133714285Y-109966666D02*
X134190476Y-109966666D01*
X133619047Y-110252380D02*
X133952380Y-109252380D01*
X134285714Y-110252380D01*
X134571428Y-109347619D02*
X134619047Y-109300000D01*
X134714285Y-109252380D01*
X134952380Y-109252380D01*
X135047619Y-109300000D01*
X135095238Y-109347619D01*
X135142857Y-109442857D01*
X135142857Y-109538095D01*
X135095238Y-109680952D01*
X134523809Y-110252380D01*
X135142857Y-110252380D01*
X135476190Y-110585714D02*
X135714285Y-110585714D01*
X135714285Y-109157142D01*
X135476190Y-109157142D01*
X136523809Y-110585714D02*
X136285714Y-110585714D01*
X136285714Y-109157142D01*
X136523809Y-109157142D01*
X137476190Y-110252380D02*
X137142857Y-109776190D01*
X136904761Y-110252380D02*
X136904761Y-109252380D01*
X137285714Y-109252380D01*
X137380952Y-109300000D01*
X137428571Y-109347619D01*
X137476190Y-109442857D01*
X137476190Y-109585714D01*
X137428571Y-109680952D01*
X137380952Y-109728571D01*
X137285714Y-109776190D01*
X136904761Y-109776190D01*
X137857142Y-109966666D02*
X138333333Y-109966666D01*
X137761904Y-110252380D02*
X138095238Y-109252380D01*
X138428571Y-110252380D01*
X138666666Y-109252380D02*
X139285714Y-109252380D01*
X138952380Y-109633333D01*
X139095238Y-109633333D01*
X139190476Y-109680952D01*
X139238095Y-109728571D01*
X139285714Y-109823809D01*
X139285714Y-110061904D01*
X139238095Y-110157142D01*
X139190476Y-110204761D01*
X139095238Y-110252380D01*
X138809523Y-110252380D01*
X138714285Y-110204761D01*
X138666666Y-110157142D01*
X139619047Y-110585714D02*
X139857142Y-110585714D01*
X139857142Y-109157142D01*
X139619047Y-109157142D01*
D11*
X162738571Y-95300000D02*
X162024285Y-95800000D01*
X162738571Y-96157142D02*
X161238571Y-96157142D01*
X161238571Y-95585714D01*
X161310000Y-95442857D01*
X161381428Y-95371428D01*
X161524285Y-95300000D01*
X161738571Y-95300000D01*
X161881428Y-95371428D01*
X161952857Y-95442857D01*
X162024285Y-95585714D01*
X162024285Y-96157142D01*
X161952857Y-94657142D02*
X161952857Y-94157142D01*
X162738571Y-93942857D02*
X162738571Y-94657142D01*
X161238571Y-94657142D01*
X161238571Y-93942857D01*
X162738571Y-93300000D02*
X161238571Y-93300000D01*
X161238571Y-92942857D01*
X161310000Y-92728571D01*
X161452857Y-92585714D01*
X161595714Y-92514285D01*
X161881428Y-92442857D01*
X162095714Y-92442857D01*
X162381428Y-92514285D01*
X162524285Y-92585714D01*
X162667142Y-92728571D01*
X162738571Y-92942857D01*
X162738571Y-93300000D01*
X161167142Y-90728571D02*
X163095714Y-92014285D01*
X161310000Y-89442857D02*
X161238571Y-89585714D01*
X161238571Y-89800000D01*
X161310000Y-90014285D01*
X161452857Y-90157142D01*
X161595714Y-90228571D01*
X161881428Y-90300000D01*
X162095714Y-90300000D01*
X162381428Y-90228571D01*
X162524285Y-90157142D01*
X162667142Y-90014285D01*
X162738571Y-89800000D01*
X162738571Y-89657142D01*
X162667142Y-89442857D01*
X162595714Y-89371428D01*
X162095714Y-89371428D01*
X162095714Y-89657142D01*
X162738571Y-87871428D02*
X162024285Y-88371428D01*
X162738571Y-88728571D02*
X161238571Y-88728571D01*
X161238571Y-88157142D01*
X161310000Y-88014285D01*
X161381428Y-87942857D01*
X161524285Y-87871428D01*
X161738571Y-87871428D01*
X161881428Y-87942857D01*
X161952857Y-88014285D01*
X162024285Y-88157142D01*
X162024285Y-88728571D01*
X161952857Y-87228571D02*
X161952857Y-86728571D01*
X162738571Y-86514285D02*
X162738571Y-87228571D01*
X161238571Y-87228571D01*
X161238571Y-86514285D01*
X161952857Y-85871428D02*
X161952857Y-85371428D01*
X162738571Y-85157142D02*
X162738571Y-85871428D01*
X161238571Y-85871428D01*
X161238571Y-85157142D01*
X162738571Y-84514285D02*
X161238571Y-84514285D01*
X162738571Y-83657142D01*
X161238571Y-83657142D01*
X161167142Y-81871428D02*
X163095714Y-83157142D01*
X161952857Y-80871428D02*
X162024285Y-80657142D01*
X162095714Y-80585714D01*
X162238571Y-80514285D01*
X162452857Y-80514285D01*
X162595714Y-80585714D01*
X162667142Y-80657142D01*
X162738571Y-80800000D01*
X162738571Y-81371428D01*
X161238571Y-81371428D01*
X161238571Y-80871428D01*
X161310000Y-80728571D01*
X161381428Y-80657142D01*
X161524285Y-80585714D01*
X161667142Y-80585714D01*
X161810000Y-80657142D01*
X161881428Y-80728571D01*
X161952857Y-80871428D01*
X161952857Y-81371428D01*
X162738571Y-79157142D02*
X162738571Y-79871428D01*
X161238571Y-79871428D01*
X161238571Y-78657142D02*
X162452857Y-78657142D01*
X162595714Y-78585714D01*
X162667142Y-78514285D01*
X162738571Y-78371428D01*
X162738571Y-78085714D01*
X162667142Y-77942857D01*
X162595714Y-77871428D01*
X162452857Y-77800000D01*
X161238571Y-77800000D01*
X161952857Y-77085714D02*
X161952857Y-76585714D01*
X162738571Y-76371428D02*
X162738571Y-77085714D01*
X161238571Y-77085714D01*
X161238571Y-76371428D01*
D10*
X152100000Y-120471904D02*
X152052380Y-120567142D01*
X152052380Y-120710000D01*
X152100000Y-120852857D01*
X152195238Y-120948095D01*
X152290476Y-120995714D01*
X152480952Y-121043333D01*
X152623809Y-121043333D01*
X152814285Y-120995714D01*
X152909523Y-120948095D01*
X153004761Y-120852857D01*
X153052380Y-120710000D01*
X153052380Y-120614761D01*
X153004761Y-120471904D01*
X152957142Y-120424285D01*
X152623809Y-120424285D01*
X152623809Y-120614761D01*
X153052380Y-119995714D02*
X152052380Y-119995714D01*
X153052380Y-119424285D01*
X152052380Y-119424285D01*
X153052380Y-118948095D02*
X152052380Y-118948095D01*
X152052380Y-118710000D01*
X152100000Y-118567142D01*
X152195238Y-118471904D01*
X152290476Y-118424285D01*
X152480952Y-118376666D01*
X152623809Y-118376666D01*
X152814285Y-118424285D01*
X152909523Y-118471904D01*
X153004761Y-118567142D01*
X153052380Y-118710000D01*
X153052380Y-118948095D01*
X150352380Y-120309047D02*
X150352380Y-120880476D01*
X150352380Y-120594761D02*
X149352380Y-120594761D01*
X149495238Y-120690000D01*
X149590476Y-120785238D01*
X149638095Y-120880476D01*
X149447619Y-119928095D02*
X149400000Y-119880476D01*
X149352380Y-119785238D01*
X149352380Y-119547142D01*
X149400000Y-119451904D01*
X149447619Y-119404285D01*
X149542857Y-119356666D01*
X149638095Y-119356666D01*
X149780952Y-119404285D01*
X150352380Y-119975714D01*
X150352380Y-119356666D01*
X149352380Y-119070952D02*
X150352380Y-118737619D01*
X149352380Y-118404285D01*
X146952380Y-120928095D02*
X146952380Y-120309047D01*
X147333333Y-120642380D01*
X147333333Y-120499523D01*
X147380952Y-120404285D01*
X147428571Y-120356666D01*
X147523809Y-120309047D01*
X147761904Y-120309047D01*
X147857142Y-120356666D01*
X147904761Y-120404285D01*
X147952380Y-120499523D01*
X147952380Y-120785238D01*
X147904761Y-120880476D01*
X147857142Y-120928095D01*
X146952380Y-120023333D02*
X147952380Y-119690000D01*
X146952380Y-119356666D01*
X146952380Y-119118571D02*
X146952380Y-118499523D01*
X147333333Y-118832857D01*
X147333333Y-118690000D01*
X147380952Y-118594761D01*
X147428571Y-118547142D01*
X147523809Y-118499523D01*
X147761904Y-118499523D01*
X147857142Y-118547142D01*
X147904761Y-118594761D01*
X147952380Y-118690000D01*
X147952380Y-118975714D01*
X147904761Y-119070952D01*
X147857142Y-119118571D01*
D12*
X162945714Y-108678571D02*
X162445714Y-107964285D01*
X162088571Y-108678571D02*
X162088571Y-107178571D01*
X162660000Y-107178571D01*
X162802857Y-107250000D01*
X162874285Y-107321428D01*
X162945714Y-107464285D01*
X162945714Y-107678571D01*
X162874285Y-107821428D01*
X162802857Y-107892857D01*
X162660000Y-107964285D01*
X162088571Y-107964285D01*
X164160000Y-108607142D02*
X164017142Y-108678571D01*
X163731428Y-108678571D01*
X163588571Y-108607142D01*
X163517142Y-108464285D01*
X163517142Y-107892857D01*
X163588571Y-107750000D01*
X163731428Y-107678571D01*
X164017142Y-107678571D01*
X164160000Y-107750000D01*
X164231428Y-107892857D01*
X164231428Y-108035714D01*
X163517142Y-108178571D01*
X164731428Y-107678571D02*
X165088571Y-108678571D01*
X165445714Y-107678571D01*
X166017142Y-108535714D02*
X166088571Y-108607142D01*
X166017142Y-108678571D01*
X165945714Y-108607142D01*
X166017142Y-108535714D01*
X166017142Y-108678571D01*
X168660000Y-108678571D02*
X167802857Y-108678571D01*
X168231428Y-108678571D02*
X168231428Y-107178571D01*
X168088571Y-107392857D01*
X167945714Y-107535714D01*
X167802857Y-107607142D01*
X169302857Y-108535714D02*
X169374285Y-108607142D01*
X169302857Y-108678571D01*
X169231428Y-108607142D01*
X169302857Y-108535714D01*
X169302857Y-108678571D01*
X170302857Y-107178571D02*
X170445714Y-107178571D01*
X170588571Y-107250000D01*
X170660000Y-107321428D01*
X170731428Y-107464285D01*
X170802857Y-107750000D01*
X170802857Y-108107142D01*
X170731428Y-108392857D01*
X170660000Y-108535714D01*
X170588571Y-108607142D01*
X170445714Y-108678571D01*
X170302857Y-108678571D01*
X170160000Y-108607142D01*
X170088571Y-108535714D01*
X170017142Y-108392857D01*
X169945714Y-108107142D01*
X169945714Y-107750000D01*
X170017142Y-107464285D01*
X170088571Y-107321428D01*
X170160000Y-107250000D01*
X170302857Y-107178571D01*
X150666666Y-104852380D02*
X150571428Y-104757142D01*
X150380952Y-104661904D01*
X150190476Y-104661904D01*
X150000000Y-104757142D01*
X149904761Y-104852380D01*
X149809523Y-105042857D01*
X149809523Y-105233333D01*
X149904761Y-105423809D01*
X150000000Y-105519047D01*
X150190476Y-105614285D01*
X150380952Y-105614285D01*
X150571428Y-105519047D01*
X150666666Y-105423809D01*
X150666666Y-104661904D02*
X150666666Y-105423809D01*
X150761904Y-105519047D01*
X150857142Y-105519047D01*
X151047619Y-105423809D01*
X151142857Y-105233333D01*
X151142857Y-104757142D01*
X150952380Y-104471428D01*
X150666666Y-104280952D01*
X150285714Y-104185714D01*
X149904761Y-104280952D01*
X149619047Y-104471428D01*
X149428571Y-104757142D01*
X149333333Y-105138095D01*
X149428571Y-105519047D01*
X149619047Y-105804761D01*
X149904761Y-105995238D01*
X150285714Y-106090476D01*
X150666666Y-105995238D01*
X150952380Y-105804761D01*
X152000000Y-105804761D02*
X152000000Y-103804761D01*
X152666666Y-105233333D01*
X153333333Y-103804761D01*
X153333333Y-105804761D01*
X154285714Y-105804761D02*
X154285714Y-104471428D01*
X154285714Y-104852380D02*
X154380952Y-104661904D01*
X154476190Y-104566666D01*
X154666666Y-104471428D01*
X154857142Y-104471428D01*
X156666666Y-105614285D02*
X156571428Y-105709523D01*
X156285714Y-105804761D01*
X156095238Y-105804761D01*
X155809523Y-105709523D01*
X155619047Y-105519047D01*
X155523809Y-105328571D01*
X155428571Y-104947619D01*
X155428571Y-104661904D01*
X155523809Y-104280952D01*
X155619047Y-104090476D01*
X155809523Y-103900000D01*
X156095238Y-103804761D01*
X156285714Y-103804761D01*
X156571428Y-103900000D01*
X156666666Y-103995238D01*
X157523809Y-105804761D02*
X157523809Y-103804761D01*
X158380952Y-105804761D02*
X158380952Y-104757142D01*
X158285714Y-104566666D01*
X158095238Y-104471428D01*
X157809523Y-104471428D01*
X157619047Y-104566666D01*
X157523809Y-104661904D01*
X160190476Y-104471428D02*
X160190476Y-105804761D01*
X159333333Y-104471428D02*
X159333333Y-105519047D01*
X159428571Y-105709523D01*
X159619047Y-105804761D01*
X159904761Y-105804761D01*
X160095238Y-105709523D01*
X160190476Y-105614285D01*
X161142857Y-104471428D02*
X161142857Y-105804761D01*
X161142857Y-104661904D02*
X161238095Y-104566666D01*
X161428571Y-104471428D01*
X161714285Y-104471428D01*
X161904761Y-104566666D01*
X162000000Y-104757142D01*
X162000000Y-105804761D01*
X163809523Y-105709523D02*
X163619047Y-105804761D01*
X163238095Y-105804761D01*
X163047619Y-105709523D01*
X162952380Y-105614285D01*
X162857142Y-105423809D01*
X162857142Y-104852380D01*
X162952380Y-104661904D01*
X163047619Y-104566666D01*
X163238095Y-104471428D01*
X163619047Y-104471428D01*
X163809523Y-104566666D01*
X164666666Y-105804761D02*
X164666666Y-103804761D01*
X164857142Y-105042857D02*
X165428571Y-105804761D01*
X165428571Y-104471428D02*
X164666666Y-105233333D01*
X167142857Y-104471428D02*
X167142857Y-105804761D01*
X166285714Y-104471428D02*
X166285714Y-105519047D01*
X166380952Y-105709523D01*
X166571428Y-105804761D01*
X166857142Y-105804761D01*
X167047619Y-105709523D01*
X167142857Y-105614285D01*
X168857142Y-105709523D02*
X168666666Y-105804761D01*
X168285714Y-105804761D01*
X168095238Y-105709523D01*
X168000000Y-105519047D01*
X168000000Y-104757142D01*
X168095238Y-104566666D01*
X168285714Y-104471428D01*
X168666666Y-104471428D01*
X168857142Y-104566666D01*
X168952380Y-104757142D01*
X168952380Y-104947619D01*
X168000000Y-105138095D01*
X170571428Y-105709523D02*
X170380952Y-105804761D01*
X170000000Y-105804761D01*
X169809523Y-105709523D01*
X169714285Y-105519047D01*
X169714285Y-104757142D01*
X169809523Y-104566666D01*
X170000000Y-104471428D01*
X170380952Y-104471428D01*
X170571428Y-104566666D01*
X170666666Y-104757142D01*
X170666666Y-104947619D01*
X169714285Y-105138095D01*
D13*
X104900000Y-93500000D02*
X104900000Y-93900000D01*
X104000000Y-94100000D02*
X104900000Y-93500000D01*
X104900000Y-94700000D02*
X104000000Y-94100000D01*
X104900000Y-93600000D02*
X104900000Y-94700000D01*
X104100000Y-94100000D02*
X104900000Y-93600000D01*
X104900000Y-94600000D02*
X104100000Y-94100000D01*
X104900000Y-93700000D02*
X104900000Y-94600000D01*
X104100000Y-94100000D02*
X104800000Y-93800000D01*
X104800000Y-94400000D02*
X104100000Y-94100000D01*
X104800000Y-93800000D02*
X104800000Y-94400000D01*
X104600000Y-94100000D02*
X104500000Y-94100000D01*
X104700000Y-93900000D02*
X104600000Y-94100000D01*
X104200000Y-94100000D02*
X104700000Y-93900000D01*
X104700000Y-94300000D02*
X104200000Y-94100000D01*
X104700000Y-93900000D02*
X104700000Y-94300000D01*
D14*
G04 #@! TO.C,Q4*
X151730000Y-89180000D02*
X150630000Y-89180000D01*
X151730000Y-89450000D02*
X151730000Y-89180000D01*
X153230000Y-89450000D02*
X151730000Y-89450000D01*
X151730000Y-82820000D02*
X148900000Y-82820000D01*
X151730000Y-82550000D02*
X151730000Y-82820000D01*
X153230000Y-82550000D02*
X151730000Y-82550000D01*
G04 #@! TO.C,C1*
X112480000Y-76500000D02*
X112480000Y-78500000D01*
X114520000Y-78500000D02*
X114520000Y-76500000D01*
G04 #@! TO.C,C3*
X118130000Y-88650000D02*
X118130000Y-87350000D01*
X118730000Y-88000000D02*
X117530000Y-88000000D01*
X110699000Y-88246000D02*
X110699000Y-87754000D01*
X110739000Y-88598000D02*
X110739000Y-87402000D01*
X110779000Y-88814000D02*
X110779000Y-87186000D01*
X110819000Y-88983000D02*
X110819000Y-87017000D01*
X110859000Y-89127000D02*
X110859000Y-86873000D01*
X110899000Y-89254000D02*
X110899000Y-86746000D01*
X110939000Y-89369000D02*
X110939000Y-86631000D01*
X110979000Y-89473000D02*
X110979000Y-86527000D01*
X111019000Y-89570000D02*
X111019000Y-86430000D01*
X111059000Y-89660000D02*
X111059000Y-86340000D01*
X111099000Y-89745000D02*
X111099000Y-86255000D01*
X111139000Y-89826000D02*
X111139000Y-86174000D01*
X111179000Y-89902000D02*
X111179000Y-86098000D01*
X111219000Y-89974000D02*
X111219000Y-86026000D01*
X111259000Y-90043000D02*
X111259000Y-85957000D01*
X111299000Y-90109000D02*
X111299000Y-85891000D01*
X111339000Y-90173000D02*
X111339000Y-85827000D01*
X111379000Y-90234000D02*
X111379000Y-85766000D01*
X111419000Y-90293000D02*
X111419000Y-85707000D01*
X111459000Y-90349000D02*
X111459000Y-85651000D01*
X111499000Y-90404000D02*
X111499000Y-85596000D01*
X111539000Y-90457000D02*
X111539000Y-85543000D01*
X111579000Y-90508000D02*
X111579000Y-85492000D01*
X111619000Y-90557000D02*
X111619000Y-85443000D01*
X111659000Y-90605000D02*
X111659000Y-85395000D01*
X111699000Y-90652000D02*
X111699000Y-85348000D01*
X111739000Y-90697000D02*
X111739000Y-85303000D01*
X111779000Y-90740000D02*
X111779000Y-85260000D01*
X111819000Y-90783000D02*
X111819000Y-85217000D01*
X111859000Y-90824000D02*
X111859000Y-85176000D01*
X111899000Y-90865000D02*
X111899000Y-85135000D01*
X111939000Y-90904000D02*
X111939000Y-85096000D01*
X111979000Y-90942000D02*
X111979000Y-85058000D01*
X112019000Y-90979000D02*
X112019000Y-85021000D01*
X112059000Y-87020000D02*
X112059000Y-84985000D01*
X112059000Y-91015000D02*
X112059000Y-88980000D01*
X112099000Y-87020000D02*
X112099000Y-84950000D01*
X112099000Y-91050000D02*
X112099000Y-88980000D01*
X112139000Y-87020000D02*
X112139000Y-84916000D01*
X112139000Y-91084000D02*
X112139000Y-88980000D01*
X112179000Y-87020000D02*
X112179000Y-84882000D01*
X112179000Y-91118000D02*
X112179000Y-88980000D01*
X112219000Y-87020000D02*
X112219000Y-84850000D01*
X112219000Y-91150000D02*
X112219000Y-88980000D01*
X112259000Y-87020000D02*
X112259000Y-84818000D01*
X112259000Y-91182000D02*
X112259000Y-88980000D01*
X112299000Y-87020000D02*
X112299000Y-84787000D01*
X112299000Y-91213000D02*
X112299000Y-88980000D01*
X112339000Y-87020000D02*
X112339000Y-84757000D01*
X112339000Y-91243000D02*
X112339000Y-88980000D01*
X112379000Y-87020000D02*
X112379000Y-84728000D01*
X112379000Y-91272000D02*
X112379000Y-88980000D01*
X112419000Y-87020000D02*
X112419000Y-84699000D01*
X112419000Y-91301000D02*
X112419000Y-88980000D01*
X112459000Y-87020000D02*
X112459000Y-84671000D01*
X112459000Y-91329000D02*
X112459000Y-88980000D01*
X112499000Y-87020000D02*
X112499000Y-84644000D01*
X112499000Y-91356000D02*
X112499000Y-88980000D01*
X112539000Y-87020000D02*
X112539000Y-84617000D01*
X112539000Y-91383000D02*
X112539000Y-88980000D01*
X112579000Y-87020000D02*
X112579000Y-84592000D01*
X112579000Y-91408000D02*
X112579000Y-88980000D01*
X112619000Y-87020000D02*
X112619000Y-84566000D01*
X112619000Y-91434000D02*
X112619000Y-88980000D01*
X112659000Y-87020000D02*
X112659000Y-84542000D01*
X112659000Y-91458000D02*
X112659000Y-88980000D01*
X112699000Y-87020000D02*
X112699000Y-84518000D01*
X112699000Y-91482000D02*
X112699000Y-88980000D01*
X112739000Y-87020000D02*
X112739000Y-84495000D01*
X112739000Y-91505000D02*
X112739000Y-88980000D01*
X112779000Y-87020000D02*
X112779000Y-84472000D01*
X112779000Y-91528000D02*
X112779000Y-88980000D01*
X112819000Y-87020000D02*
X112819000Y-84450000D01*
X112819000Y-91550000D02*
X112819000Y-88980000D01*
X112859000Y-87020000D02*
X112859000Y-84428000D01*
X112859000Y-91572000D02*
X112859000Y-88980000D01*
X112899000Y-87020000D02*
X112899000Y-84407000D01*
X112899000Y-91593000D02*
X112899000Y-88980000D01*
X112939000Y-87020000D02*
X112939000Y-84387000D01*
X112939000Y-91613000D02*
X112939000Y-88980000D01*
X112979000Y-87020000D02*
X112979000Y-84367000D01*
X112979000Y-91633000D02*
X112979000Y-88980000D01*
X113019000Y-87020000D02*
X113019000Y-84348000D01*
X113019000Y-91652000D02*
X113019000Y-88980000D01*
X113059000Y-87020000D02*
X113059000Y-84329000D01*
X113059000Y-91671000D02*
X113059000Y-88980000D01*
X113099000Y-87020000D02*
X113099000Y-84310000D01*
X113099000Y-91690000D02*
X113099000Y-88980000D01*
X113139000Y-87020000D02*
X113139000Y-84293000D01*
X113139000Y-91707000D02*
X113139000Y-88980000D01*
X113179000Y-87020000D02*
X113179000Y-84275000D01*
X113179000Y-91725000D02*
X113179000Y-88980000D01*
X113219000Y-87020000D02*
X113219000Y-84259000D01*
X113219000Y-91741000D02*
X113219000Y-88980000D01*
X113259000Y-87020000D02*
X113259000Y-84242000D01*
X113259000Y-91758000D02*
X113259000Y-88980000D01*
X113299000Y-87020000D02*
X113299000Y-84227000D01*
X113299000Y-91773000D02*
X113299000Y-88980000D01*
X113339000Y-87020000D02*
X113339000Y-84211000D01*
X113339000Y-91789000D02*
X113339000Y-88980000D01*
X113379000Y-87020000D02*
X113379000Y-84197000D01*
X113379000Y-91803000D02*
X113379000Y-88980000D01*
X113419000Y-87020000D02*
X113419000Y-84182000D01*
X113419000Y-91818000D02*
X113419000Y-88980000D01*
X113459000Y-87020000D02*
X113459000Y-84168000D01*
X113459000Y-91832000D02*
X113459000Y-88980000D01*
X113499000Y-87020000D02*
X113499000Y-84155000D01*
X113499000Y-91845000D02*
X113499000Y-88980000D01*
X113539000Y-87020000D02*
X113539000Y-84142000D01*
X113539000Y-91858000D02*
X113539000Y-88980000D01*
X113579000Y-87020000D02*
X113579000Y-84130000D01*
X113579000Y-91870000D02*
X113579000Y-88980000D01*
X113619000Y-87020000D02*
X113619000Y-84117000D01*
X113619000Y-91883000D02*
X113619000Y-88980000D01*
X113659000Y-87020000D02*
X113659000Y-84106000D01*
X113659000Y-91894000D02*
X113659000Y-88980000D01*
X113699000Y-87020000D02*
X113699000Y-84095000D01*
X113699000Y-91905000D02*
X113699000Y-88980000D01*
X113739000Y-87020000D02*
X113739000Y-84084000D01*
X113739000Y-91916000D02*
X113739000Y-88980000D01*
X113779000Y-87020000D02*
X113779000Y-84074000D01*
X113779000Y-91926000D02*
X113779000Y-88980000D01*
X113819000Y-87020000D02*
X113819000Y-84064000D01*
X113819000Y-91936000D02*
X113819000Y-88980000D01*
X113859000Y-87020000D02*
X113859000Y-84054000D01*
X113859000Y-91946000D02*
X113859000Y-88980000D01*
X113899000Y-87020000D02*
X113899000Y-84045000D01*
X113899000Y-91955000D02*
X113899000Y-88980000D01*
X113939000Y-87020000D02*
X113939000Y-84037000D01*
X113939000Y-91963000D02*
X113939000Y-88980000D01*
X113979000Y-87020000D02*
X113979000Y-84029000D01*
X113979000Y-91971000D02*
X113979000Y-88980000D01*
X114019000Y-91979000D02*
X114019000Y-84021000D01*
X114059000Y-91987000D02*
X114059000Y-84013000D01*
X114100000Y-91994000D02*
X114100000Y-84006000D01*
X114140000Y-92000000D02*
X114140000Y-84000000D01*
X114180000Y-92006000D02*
X114180000Y-83994000D01*
X114220000Y-92012000D02*
X114220000Y-83988000D01*
X114260000Y-92017000D02*
X114260000Y-83983000D01*
X114300000Y-92022000D02*
X114300000Y-83978000D01*
X114340000Y-92027000D02*
X114340000Y-83973000D01*
X114380000Y-92031000D02*
X114380000Y-83969000D01*
X114420000Y-92035000D02*
X114420000Y-83965000D01*
X114460000Y-92038000D02*
X114460000Y-83962000D01*
X114500000Y-92041000D02*
X114500000Y-83959000D01*
X114540000Y-92043000D02*
X114540000Y-83957000D01*
X114580000Y-92046000D02*
X114580000Y-83954000D01*
X114620000Y-92047000D02*
X114620000Y-83953000D01*
X114660000Y-92049000D02*
X114660000Y-83951000D01*
X114700000Y-92050000D02*
X114700000Y-83950000D01*
X114740000Y-92050000D02*
X114740000Y-83950000D01*
X114780000Y-92050000D02*
X114780000Y-83950000D01*
X118870000Y-88000000D02*
G75*
G03X118870000Y-88000000I-4090000J0D01*
G01*
G04 #@! TO.C,C4*
X112500000Y-83520000D02*
X114500000Y-83520000D01*
X114500000Y-81480000D02*
X112500000Y-81480000D01*
G04 #@! TO.C,C5*
X148360000Y-108150000D02*
X148360000Y-106150000D01*
X146320000Y-106150000D02*
X146320000Y-108150000D01*
G04 #@! TO.C,C6*
X107920000Y-102430000D02*
X107920000Y-100430000D01*
X105880000Y-100430000D02*
X105880000Y-102430000D01*
G04 #@! TO.C,C7*
X115000000Y-92480000D02*
X113000000Y-92480000D01*
X113000000Y-94520000D02*
X115000000Y-94520000D01*
G04 #@! TO.C,C8*
X135540000Y-73520000D02*
X135540000Y-75520000D01*
X137580000Y-75520000D02*
X137580000Y-73520000D01*
G04 #@! TO.C,C9*
X145670000Y-102720000D02*
X145670000Y-100720000D01*
X143630000Y-100720000D02*
X143630000Y-102720000D01*
G04 #@! TO.C,C10*
X136030000Y-102710000D02*
X136030000Y-100710000D01*
X133990000Y-100710000D02*
X133990000Y-102710000D01*
G04 #@! TO.C,J2*
X101160000Y-92820000D02*
X102490000Y-92820000D01*
X101160000Y-94150000D02*
X101160000Y-92820000D01*
X101160000Y-95420000D02*
X103820000Y-95420000D01*
X103820000Y-95420000D02*
X103820000Y-105640000D01*
X101160000Y-95420000D02*
X101160000Y-105640000D01*
X101160000Y-105640000D02*
X103820000Y-105640000D01*
G04 #@! TO.C,Q3*
X153230000Y-71350000D02*
X151730000Y-71350000D01*
X151730000Y-71350000D02*
X151730000Y-71620000D01*
X151730000Y-71620000D02*
X148900000Y-71620000D01*
X153230000Y-78250000D02*
X151730000Y-78250000D01*
X151730000Y-78250000D02*
X151730000Y-77980000D01*
X151730000Y-77980000D02*
X150630000Y-77980000D01*
G04 #@! TO.C,R1*
X105430000Y-87000000D02*
X105430000Y-85000000D01*
X107570000Y-85000000D02*
X107570000Y-87000000D01*
G04 #@! TO.C,R2*
X105500000Y-88930000D02*
X107500000Y-88930000D01*
X107500000Y-91070000D02*
X105500000Y-91070000D01*
G04 #@! TO.C,R3*
X105850000Y-96610000D02*
X105850000Y-94610000D01*
X107990000Y-94610000D02*
X107990000Y-96610000D01*
G04 #@! TO.C,R4*
X133600000Y-120700000D02*
X131600000Y-120700000D01*
X131600000Y-118560000D02*
X133600000Y-118560000D01*
G04 #@! TO.C,R5*
X131570000Y-115570000D02*
X133570000Y-115570000D01*
X133570000Y-117710000D02*
X131570000Y-117710000D01*
G04 #@! TO.C,R6*
X121790000Y-88080000D02*
X123790000Y-88080000D01*
X123790000Y-90220000D02*
X121790000Y-90220000D01*
D10*
G04 #@! TO.C,SW1*
X142610000Y-79650000D02*
X142610000Y-81900000D01*
X142610000Y-79650000D02*
X138410000Y-79650000D01*
X142610000Y-89900000D02*
X142610000Y-92150000D01*
X142610000Y-92150000D02*
X138410000Y-92150000D01*
X133410000Y-92150000D02*
X129210000Y-92150000D01*
X129210000Y-92150000D02*
X129210000Y-89900000D01*
X133410000Y-79650000D02*
X129210000Y-79650000D01*
X129210000Y-79650000D02*
X129210000Y-81900000D01*
X142610000Y-84900000D02*
X142610000Y-86900000D01*
D14*
G04 #@! TO.C,U2*
X116400000Y-76590000D02*
X122410000Y-76590000D01*
X118650000Y-83410000D02*
X122410000Y-83410000D01*
X122410000Y-76590000D02*
X122410000Y-77850000D01*
X122410000Y-83410000D02*
X122410000Y-82150000D01*
D10*
G04 #@! TO.C,U4*
X127875000Y-102535000D02*
X127875000Y-103935000D01*
X132975000Y-102535000D02*
X132975000Y-98385000D01*
X127825000Y-102535000D02*
X127825000Y-98385000D01*
X132975000Y-102535000D02*
X132830000Y-102535000D01*
X132975000Y-98385000D02*
X132830000Y-98385000D01*
X127825000Y-98385000D02*
X127970000Y-98385000D01*
X127825000Y-102535000D02*
X127875000Y-102535000D01*
G04 #@! TO.C,U5*
X137325000Y-102575000D02*
X137375000Y-102575000D01*
X137325000Y-98425000D02*
X137470000Y-98425000D01*
X142475000Y-98425000D02*
X142330000Y-98425000D01*
X142475000Y-102575000D02*
X142330000Y-102575000D01*
X137325000Y-102575000D02*
X137325000Y-98425000D01*
X142475000Y-102575000D02*
X142475000Y-98425000D01*
X137375000Y-102575000D02*
X137375000Y-103975000D01*
G04 #@! TO.C,U6*
X125185000Y-76025000D02*
X125235000Y-76025000D01*
X125185000Y-71875000D02*
X125330000Y-71875000D01*
X130335000Y-71875000D02*
X130190000Y-71875000D01*
X130335000Y-76025000D02*
X130190000Y-76025000D01*
X125185000Y-76025000D02*
X125185000Y-71875000D01*
X130335000Y-76025000D02*
X130335000Y-71875000D01*
X125235000Y-76025000D02*
X125235000Y-77425000D01*
D14*
G04 #@! TO.C,C2*
X114850000Y-74100000D02*
X116150000Y-74100000D01*
X115500000Y-74700000D02*
X115500000Y-73500000D01*
X115254000Y-66669000D02*
X115746000Y-66669000D01*
X114902000Y-66709000D02*
X116098000Y-66709000D01*
X114686000Y-66749000D02*
X116314000Y-66749000D01*
X114517000Y-66789000D02*
X116483000Y-66789000D01*
X114373000Y-66829000D02*
X116627000Y-66829000D01*
X114246000Y-66869000D02*
X116754000Y-66869000D01*
X114131000Y-66909000D02*
X116869000Y-66909000D01*
X114027000Y-66949000D02*
X116973000Y-66949000D01*
X113930000Y-66989000D02*
X117070000Y-66989000D01*
X113840000Y-67029000D02*
X117160000Y-67029000D01*
X113755000Y-67069000D02*
X117245000Y-67069000D01*
X113674000Y-67109000D02*
X117326000Y-67109000D01*
X113598000Y-67149000D02*
X117402000Y-67149000D01*
X113526000Y-67189000D02*
X117474000Y-67189000D01*
X113457000Y-67229000D02*
X117543000Y-67229000D01*
X113391000Y-67269000D02*
X117609000Y-67269000D01*
X113327000Y-67309000D02*
X117673000Y-67309000D01*
X113266000Y-67349000D02*
X117734000Y-67349000D01*
X113207000Y-67389000D02*
X117793000Y-67389000D01*
X113151000Y-67429000D02*
X117849000Y-67429000D01*
X113096000Y-67469000D02*
X117904000Y-67469000D01*
X113043000Y-67509000D02*
X117957000Y-67509000D01*
X112992000Y-67549000D02*
X118008000Y-67549000D01*
X112943000Y-67589000D02*
X118057000Y-67589000D01*
X112895000Y-67629000D02*
X118105000Y-67629000D01*
X112848000Y-67669000D02*
X118152000Y-67669000D01*
X112803000Y-67709000D02*
X118197000Y-67709000D01*
X112760000Y-67749000D02*
X118240000Y-67749000D01*
X112717000Y-67789000D02*
X118283000Y-67789000D01*
X112676000Y-67829000D02*
X118324000Y-67829000D01*
X112635000Y-67869000D02*
X118365000Y-67869000D01*
X112596000Y-67909000D02*
X118404000Y-67909000D01*
X112558000Y-67949000D02*
X118442000Y-67949000D01*
X112521000Y-67989000D02*
X118479000Y-67989000D01*
X116480000Y-68029000D02*
X118515000Y-68029000D01*
X112485000Y-68029000D02*
X114520000Y-68029000D01*
X116480000Y-68069000D02*
X118550000Y-68069000D01*
X112450000Y-68069000D02*
X114520000Y-68069000D01*
X116480000Y-68109000D02*
X118584000Y-68109000D01*
X112416000Y-68109000D02*
X114520000Y-68109000D01*
X116480000Y-68149000D02*
X118618000Y-68149000D01*
X112382000Y-68149000D02*
X114520000Y-68149000D01*
X116480000Y-68189000D02*
X118650000Y-68189000D01*
X112350000Y-68189000D02*
X114520000Y-68189000D01*
X116480000Y-68229000D02*
X118682000Y-68229000D01*
X112318000Y-68229000D02*
X114520000Y-68229000D01*
X116480000Y-68269000D02*
X118713000Y-68269000D01*
X112287000Y-68269000D02*
X114520000Y-68269000D01*
X116480000Y-68309000D02*
X118743000Y-68309000D01*
X112257000Y-68309000D02*
X114520000Y-68309000D01*
X116480000Y-68349000D02*
X118772000Y-68349000D01*
X112228000Y-68349000D02*
X114520000Y-68349000D01*
X116480000Y-68389000D02*
X118801000Y-68389000D01*
X112199000Y-68389000D02*
X114520000Y-68389000D01*
X116480000Y-68429000D02*
X118829000Y-68429000D01*
X112171000Y-68429000D02*
X114520000Y-68429000D01*
X116480000Y-68469000D02*
X118856000Y-68469000D01*
X112144000Y-68469000D02*
X114520000Y-68469000D01*
X116480000Y-68509000D02*
X118883000Y-68509000D01*
X112117000Y-68509000D02*
X114520000Y-68509000D01*
X116480000Y-68549000D02*
X118908000Y-68549000D01*
X112092000Y-68549000D02*
X114520000Y-68549000D01*
X116480000Y-68589000D02*
X118934000Y-68589000D01*
X112066000Y-68589000D02*
X114520000Y-68589000D01*
X116480000Y-68629000D02*
X118958000Y-68629000D01*
X112042000Y-68629000D02*
X114520000Y-68629000D01*
X116480000Y-68669000D02*
X118982000Y-68669000D01*
X112018000Y-68669000D02*
X114520000Y-68669000D01*
X116480000Y-68709000D02*
X119005000Y-68709000D01*
X111995000Y-68709000D02*
X114520000Y-68709000D01*
X116480000Y-68749000D02*
X119028000Y-68749000D01*
X111972000Y-68749000D02*
X114520000Y-68749000D01*
X116480000Y-68789000D02*
X119050000Y-68789000D01*
X111950000Y-68789000D02*
X114520000Y-68789000D01*
X116480000Y-68829000D02*
X119072000Y-68829000D01*
X111928000Y-68829000D02*
X114520000Y-68829000D01*
X116480000Y-68869000D02*
X119093000Y-68869000D01*
X111907000Y-68869000D02*
X114520000Y-68869000D01*
X116480000Y-68909000D02*
X119113000Y-68909000D01*
X111887000Y-68909000D02*
X114520000Y-68909000D01*
X116480000Y-68949000D02*
X119133000Y-68949000D01*
X111867000Y-68949000D02*
X114520000Y-68949000D01*
X116480000Y-68989000D02*
X119152000Y-68989000D01*
X111848000Y-68989000D02*
X114520000Y-68989000D01*
X116480000Y-69029000D02*
X119171000Y-69029000D01*
X111829000Y-69029000D02*
X114520000Y-69029000D01*
X116480000Y-69069000D02*
X119190000Y-69069000D01*
X111810000Y-69069000D02*
X114520000Y-69069000D01*
X116480000Y-69109000D02*
X119207000Y-69109000D01*
X111793000Y-69109000D02*
X114520000Y-69109000D01*
X116480000Y-69149000D02*
X119225000Y-69149000D01*
X111775000Y-69149000D02*
X114520000Y-69149000D01*
X116480000Y-69189000D02*
X119241000Y-69189000D01*
X111759000Y-69189000D02*
X114520000Y-69189000D01*
X116480000Y-69229000D02*
X119258000Y-69229000D01*
X111742000Y-69229000D02*
X114520000Y-69229000D01*
X116480000Y-69269000D02*
X119273000Y-69269000D01*
X111727000Y-69269000D02*
X114520000Y-69269000D01*
X116480000Y-69309000D02*
X119289000Y-69309000D01*
X111711000Y-69309000D02*
X114520000Y-69309000D01*
X116480000Y-69349000D02*
X119303000Y-69349000D01*
X111697000Y-69349000D02*
X114520000Y-69349000D01*
X116480000Y-69389000D02*
X119318000Y-69389000D01*
X111682000Y-69389000D02*
X114520000Y-69389000D01*
X116480000Y-69429000D02*
X119332000Y-69429000D01*
X111668000Y-69429000D02*
X114520000Y-69429000D01*
X116480000Y-69469000D02*
X119345000Y-69469000D01*
X111655000Y-69469000D02*
X114520000Y-69469000D01*
X116480000Y-69509000D02*
X119358000Y-69509000D01*
X111642000Y-69509000D02*
X114520000Y-69509000D01*
X116480000Y-69549000D02*
X119370000Y-69549000D01*
X111630000Y-69549000D02*
X114520000Y-69549000D01*
X116480000Y-69589000D02*
X119383000Y-69589000D01*
X111617000Y-69589000D02*
X114520000Y-69589000D01*
X116480000Y-69629000D02*
X119394000Y-69629000D01*
X111606000Y-69629000D02*
X114520000Y-69629000D01*
X116480000Y-69669000D02*
X119405000Y-69669000D01*
X111595000Y-69669000D02*
X114520000Y-69669000D01*
X116480000Y-69709000D02*
X119416000Y-69709000D01*
X111584000Y-69709000D02*
X114520000Y-69709000D01*
X116480000Y-69749000D02*
X119426000Y-69749000D01*
X111574000Y-69749000D02*
X114520000Y-69749000D01*
X116480000Y-69789000D02*
X119436000Y-69789000D01*
X111564000Y-69789000D02*
X114520000Y-69789000D01*
X116480000Y-69829000D02*
X119446000Y-69829000D01*
X111554000Y-69829000D02*
X114520000Y-69829000D01*
X116480000Y-69869000D02*
X119455000Y-69869000D01*
X111545000Y-69869000D02*
X114520000Y-69869000D01*
X116480000Y-69909000D02*
X119463000Y-69909000D01*
X111537000Y-69909000D02*
X114520000Y-69909000D01*
X116480000Y-69949000D02*
X119471000Y-69949000D01*
X111529000Y-69949000D02*
X114520000Y-69949000D01*
X111521000Y-69989000D02*
X119479000Y-69989000D01*
X111513000Y-70029000D02*
X119487000Y-70029000D01*
X111506000Y-70070000D02*
X119494000Y-70070000D01*
X111500000Y-70110000D02*
X119500000Y-70110000D01*
X111494000Y-70150000D02*
X119506000Y-70150000D01*
X111488000Y-70190000D02*
X119512000Y-70190000D01*
X111483000Y-70230000D02*
X119517000Y-70230000D01*
X111478000Y-70270000D02*
X119522000Y-70270000D01*
X111473000Y-70310000D02*
X119527000Y-70310000D01*
X111469000Y-70350000D02*
X119531000Y-70350000D01*
X111465000Y-70390000D02*
X119535000Y-70390000D01*
X111462000Y-70430000D02*
X119538000Y-70430000D01*
X111459000Y-70470000D02*
X119541000Y-70470000D01*
X111457000Y-70510000D02*
X119543000Y-70510000D01*
X111454000Y-70550000D02*
X119546000Y-70550000D01*
X111453000Y-70590000D02*
X119547000Y-70590000D01*
X111451000Y-70630000D02*
X119549000Y-70630000D01*
X111450000Y-70670000D02*
X119550000Y-70670000D01*
X111450000Y-70710000D02*
X119550000Y-70710000D01*
X111450000Y-70750000D02*
X119550000Y-70750000D01*
X119590000Y-70750000D02*
G75*
G03X119590000Y-70750000I-4090000J0D01*
G01*
G04 #@! TO.C,Q7*
X153230000Y-93950000D02*
X151730000Y-93950000D01*
X151730000Y-93950000D02*
X151730000Y-94220000D01*
X151730000Y-94220000D02*
X148900000Y-94220000D01*
X153230000Y-100850000D02*
X151730000Y-100850000D01*
X151730000Y-100850000D02*
X151730000Y-100580000D01*
X151730000Y-100580000D02*
X150630000Y-100580000D01*
G04 #@! TO.C,R7*
X121760000Y-84260000D02*
X123760000Y-84260000D01*
X123760000Y-86400000D02*
X121760000Y-86400000D01*
G04 #@! TO.C,R8*
X123790000Y-94070000D02*
X121790000Y-94070000D01*
X121790000Y-91930000D02*
X123790000Y-91930000D01*
D10*
G04 #@! TO.C,U3*
X117825000Y-106125000D02*
X117825000Y-105550000D01*
X112075000Y-106125000D02*
X112075000Y-105475000D01*
X112075000Y-95475000D02*
X112075000Y-96125000D01*
X117825000Y-95475000D02*
X117825000Y-96125000D01*
X117825000Y-106125000D02*
X112075000Y-106125000D01*
X117825000Y-95475000D02*
X112075000Y-95475000D01*
X117825000Y-105550000D02*
X119425000Y-105550000D01*
G04 #@! TO.C,U7*
X139295000Y-76085000D02*
X139345000Y-76085000D01*
X139295000Y-71935000D02*
X139440000Y-71935000D01*
X144445000Y-71935000D02*
X144300000Y-71935000D01*
X144445000Y-76085000D02*
X144300000Y-76085000D01*
X139295000Y-76085000D02*
X139295000Y-71935000D01*
X144445000Y-76085000D02*
X144445000Y-71935000D01*
X139345000Y-76085000D02*
X139345000Y-77485000D01*
D14*
G04 #@! TO.C,C11*
X131790000Y-73520000D02*
X131790000Y-75520000D01*
X133830000Y-75520000D02*
X133830000Y-73520000D01*
G04 #@! TO.C,J3*
X140910000Y-118170000D02*
X140910000Y-116840000D01*
X142240000Y-118170000D02*
X140910000Y-118170000D01*
X140910000Y-115570000D02*
X140910000Y-112970000D01*
X143510000Y-115570000D02*
X140910000Y-115570000D01*
X143510000Y-118170000D02*
X143510000Y-115570000D01*
X140910000Y-112970000D02*
X153730000Y-112970000D01*
X143510000Y-118170000D02*
X153730000Y-118170000D01*
X153730000Y-118170000D02*
X153730000Y-112970000D01*
G04 #@! TO.C,J4*
X140910000Y-113090000D02*
X140910000Y-111760000D01*
X142240000Y-113090000D02*
X140910000Y-113090000D01*
X143510000Y-113090000D02*
X143510000Y-110430000D01*
X143510000Y-110430000D02*
X153730000Y-110430000D01*
X143510000Y-113090000D02*
X153730000Y-113090000D01*
X153730000Y-113090000D02*
X153730000Y-110430000D01*
G04 #@! TO.C,J5*
X163370000Y-78410000D02*
X163370000Y-93650000D01*
X170990000Y-78410000D02*
X170990000Y-93650000D01*
X164640000Y-78410000D02*
X164640000Y-93650000D01*
X163370000Y-93650000D02*
X170990000Y-93650000D01*
X163370000Y-78410000D02*
X170990000Y-78410000D01*
G04 #@! TO.C,J6*
X125760000Y-58480000D02*
X146080000Y-58480000D01*
X125760000Y-50860000D02*
X146080000Y-50860000D01*
X146080000Y-57210000D02*
X125760000Y-57210000D01*
X146080000Y-58480000D02*
X146080000Y-50860000D01*
X125760000Y-50860000D02*
X125760000Y-58480000D01*
D10*
G04 #@! TO.C,Q1*
X118965000Y-65815000D02*
X119015000Y-65815000D01*
X118965000Y-61665000D02*
X119110000Y-61665000D01*
X124115000Y-61665000D02*
X123970000Y-61665000D01*
X124115000Y-65815000D02*
X123970000Y-65815000D01*
X118965000Y-65815000D02*
X118965000Y-61665000D01*
X124115000Y-65815000D02*
X124115000Y-61665000D01*
X119015000Y-65815000D02*
X119015000Y-67215000D01*
G04 #@! TO.C,Q2*
X128785000Y-65885000D02*
X128785000Y-67285000D01*
X133885000Y-65885000D02*
X133885000Y-61735000D01*
X128735000Y-65885000D02*
X128735000Y-61735000D01*
X133885000Y-65885000D02*
X133740000Y-65885000D01*
X133885000Y-61735000D02*
X133740000Y-61735000D01*
X128735000Y-61735000D02*
X128880000Y-61735000D01*
X128735000Y-65885000D02*
X128785000Y-65885000D01*
G04 #@! TO.C,Q5*
X137625000Y-65875000D02*
X137675000Y-65875000D01*
X137625000Y-61725000D02*
X137770000Y-61725000D01*
X142775000Y-61725000D02*
X142630000Y-61725000D01*
X142775000Y-65875000D02*
X142630000Y-65875000D01*
X137625000Y-65875000D02*
X137625000Y-61725000D01*
X142775000Y-65875000D02*
X142775000Y-61725000D01*
X137675000Y-65875000D02*
X137675000Y-67275000D01*
G04 #@! TO.C,Q6*
X146875000Y-65875000D02*
X146875000Y-67275000D01*
X151975000Y-65875000D02*
X151975000Y-61725000D01*
X146825000Y-65875000D02*
X146825000Y-61725000D01*
X151975000Y-65875000D02*
X151830000Y-65875000D01*
X151975000Y-61725000D02*
X151830000Y-61725000D01*
X146825000Y-61725000D02*
X146970000Y-61725000D01*
X146825000Y-65875000D02*
X146875000Y-65875000D01*
D14*
G04 #@! TO.C,J7*
X110500000Y-70700000D02*
X110500000Y-73300000D01*
X95800000Y-70700000D02*
X110500000Y-70700000D01*
X110500000Y-79900000D02*
X108600000Y-79900000D01*
X110500000Y-77200000D02*
X110500000Y-79900000D01*
X95800000Y-79900000D02*
X95800000Y-70700000D01*
X104600000Y-79900000D02*
X95800000Y-79900000D01*
D15*
G04 #@! TO.C,G\002A\002A\002A*
G36*
X125129767Y-113678401D02*
X125310010Y-113747806D01*
X125464885Y-113862163D01*
X125593343Y-114020786D01*
X125653951Y-114129942D01*
X125689728Y-114223192D01*
X125708241Y-114327850D01*
X125713394Y-114445728D01*
X125710769Y-114559991D01*
X125697348Y-114647499D01*
X125667588Y-114733067D01*
X125632351Y-114808585D01*
X125548281Y-114956344D01*
X125461383Y-115058647D01*
X125364634Y-115121704D01*
X125251006Y-115151725D01*
X125243129Y-115152652D01*
X125107789Y-115167589D01*
X124608129Y-114650253D01*
X124477490Y-114514069D01*
X124359211Y-114389000D01*
X124257978Y-114280143D01*
X124178472Y-114192592D01*
X124125379Y-114131443D01*
X124103380Y-114101792D01*
X124103078Y-114100796D01*
X124119784Y-114065073D01*
X124171586Y-114010182D01*
X124249091Y-113943562D01*
X124342907Y-113872652D01*
X124443643Y-113804891D01*
X124541905Y-113747718D01*
X124561564Y-113737645D01*
X124661671Y-113691750D01*
X124745315Y-113666444D01*
X124837353Y-113656055D01*
X124925207Y-113654632D01*
X125129767Y-113678401D01*
X125129767Y-113678401D01*
G37*
X125129767Y-113678401D02*
X125310010Y-113747806D01*
X125464885Y-113862163D01*
X125593343Y-114020786D01*
X125653951Y-114129942D01*
X125689728Y-114223192D01*
X125708241Y-114327850D01*
X125713394Y-114445728D01*
X125710769Y-114559991D01*
X125697348Y-114647499D01*
X125667588Y-114733067D01*
X125632351Y-114808585D01*
X125548281Y-114956344D01*
X125461383Y-115058647D01*
X125364634Y-115121704D01*
X125251006Y-115151725D01*
X125243129Y-115152652D01*
X125107789Y-115167589D01*
X124608129Y-114650253D01*
X124477490Y-114514069D01*
X124359211Y-114389000D01*
X124257978Y-114280143D01*
X124178472Y-114192592D01*
X124125379Y-114131443D01*
X124103380Y-114101792D01*
X124103078Y-114100796D01*
X124119784Y-114065073D01*
X124171586Y-114010182D01*
X124249091Y-113943562D01*
X124342907Y-113872652D01*
X124443643Y-113804891D01*
X124541905Y-113747718D01*
X124561564Y-113737645D01*
X124661671Y-113691750D01*
X124745315Y-113666444D01*
X124837353Y-113656055D01*
X124925207Y-113654632D01*
X125129767Y-113678401D01*
G36*
X122651176Y-115719856D02*
X122706138Y-115742547D01*
X122756906Y-115792451D01*
X122758411Y-115794234D01*
X122805856Y-115868506D01*
X122824044Y-115954692D01*
X122825157Y-115995101D01*
X122820122Y-116098876D01*
X122807189Y-116179391D01*
X122788637Y-116225402D01*
X122777131Y-116231946D01*
X122747260Y-116223972D01*
X122678875Y-116203054D01*
X122582677Y-116172528D01*
X122487764Y-116141757D01*
X122371584Y-116101951D01*
X122269898Y-116063809D01*
X122195318Y-116032252D01*
X122164129Y-116015418D01*
X122130134Y-115986431D01*
X122131949Y-115960838D01*
X122162967Y-115923633D01*
X122276096Y-115823910D01*
X122403959Y-115752264D01*
X122530759Y-115716843D01*
X122568466Y-115714490D01*
X122651176Y-115719856D01*
X122651176Y-115719856D01*
G37*
X122651176Y-115719856D02*
X122706138Y-115742547D01*
X122756906Y-115792451D01*
X122758411Y-115794234D01*
X122805856Y-115868506D01*
X122824044Y-115954692D01*
X122825157Y-115995101D01*
X122820122Y-116098876D01*
X122807189Y-116179391D01*
X122788637Y-116225402D01*
X122777131Y-116231946D01*
X122747260Y-116223972D01*
X122678875Y-116203054D01*
X122582677Y-116172528D01*
X122487764Y-116141757D01*
X122371584Y-116101951D01*
X122269898Y-116063809D01*
X122195318Y-116032252D01*
X122164129Y-116015418D01*
X122130134Y-115986431D01*
X122131949Y-115960838D01*
X122162967Y-115923633D01*
X122276096Y-115823910D01*
X122403959Y-115752264D01*
X122530759Y-115716843D01*
X122568466Y-115714490D01*
X122651176Y-115719856D01*
G36*
X122678032Y-117180756D02*
X122778491Y-117198758D01*
X122843320Y-117213116D01*
X122984517Y-117243007D01*
X123142746Y-117272537D01*
X123286088Y-117295786D01*
X123299217Y-117297656D01*
X123418078Y-117316703D01*
X123490979Y-117339249D01*
X123523560Y-117373717D01*
X123521464Y-117428530D01*
X123490333Y-117512111D01*
X123471373Y-117554694D01*
X123384614Y-117698582D01*
X123273903Y-117809066D01*
X123147070Y-117882686D01*
X123011947Y-117915981D01*
X122876367Y-117905491D01*
X122772931Y-117863303D01*
X122697219Y-117805459D01*
X122627801Y-117730867D01*
X122617420Y-117716555D01*
X122583712Y-117659677D01*
X122564432Y-117600915D01*
X122555965Y-117523210D01*
X122554614Y-117420360D01*
X122558732Y-117319389D01*
X122568519Y-117238557D01*
X122582079Y-117192433D01*
X122584686Y-117189029D01*
X122615894Y-117177743D01*
X122678032Y-117180756D01*
X122678032Y-117180756D01*
G37*
X122678032Y-117180756D02*
X122778491Y-117198758D01*
X122843320Y-117213116D01*
X122984517Y-117243007D01*
X123142746Y-117272537D01*
X123286088Y-117295786D01*
X123299217Y-117297656D01*
X123418078Y-117316703D01*
X123490979Y-117339249D01*
X123523560Y-117373717D01*
X123521464Y-117428530D01*
X123490333Y-117512111D01*
X123471373Y-117554694D01*
X123384614Y-117698582D01*
X123273903Y-117809066D01*
X123147070Y-117882686D01*
X123011947Y-117915981D01*
X122876367Y-117905491D01*
X122772931Y-117863303D01*
X122697219Y-117805459D01*
X122627801Y-117730867D01*
X122617420Y-117716555D01*
X122583712Y-117659677D01*
X122564432Y-117600915D01*
X122555965Y-117523210D01*
X122554614Y-117420360D01*
X122558732Y-117319389D01*
X122568519Y-117238557D01*
X122582079Y-117192433D01*
X122584686Y-117189029D01*
X122615894Y-117177743D01*
X122678032Y-117180756D01*
G36*
X123155711Y-108541315D02*
X123276027Y-108662571D01*
X123382960Y-108772458D01*
X123471332Y-108865480D01*
X123535969Y-108936144D01*
X123571694Y-108978955D01*
X123577143Y-108988642D01*
X123559564Y-109011851D01*
X123510637Y-109065555D01*
X123436074Y-109144007D01*
X123341590Y-109241461D01*
X123232898Y-109352171D01*
X123115712Y-109470391D01*
X122995747Y-109590373D01*
X122878715Y-109706372D01*
X122770330Y-109812641D01*
X122676306Y-109903434D01*
X122602357Y-109973005D01*
X122565366Y-110006198D01*
X122499610Y-110062952D01*
X122073180Y-109635934D01*
X121646751Y-109208917D01*
X122734279Y-108120463D01*
X123155711Y-108541315D01*
X123155711Y-108541315D01*
G37*
X123155711Y-108541315D02*
X123276027Y-108662571D01*
X123382960Y-108772458D01*
X123471332Y-108865480D01*
X123535969Y-108936144D01*
X123571694Y-108978955D01*
X123577143Y-108988642D01*
X123559564Y-109011851D01*
X123510637Y-109065555D01*
X123436074Y-109144007D01*
X123341590Y-109241461D01*
X123232898Y-109352171D01*
X123115712Y-109470391D01*
X122995747Y-109590373D01*
X122878715Y-109706372D01*
X122770330Y-109812641D01*
X122676306Y-109903434D01*
X122602357Y-109973005D01*
X122565366Y-110006198D01*
X122499610Y-110062952D01*
X122073180Y-109635934D01*
X121646751Y-109208917D01*
X122734279Y-108120463D01*
X123155711Y-108541315D01*
G36*
X120609435Y-108664639D02*
X121153155Y-109208822D01*
X120829486Y-109534689D01*
X120714622Y-109649245D01*
X120603004Y-109758613D01*
X120503547Y-109854195D01*
X120425166Y-109927398D01*
X120387420Y-109960886D01*
X120269023Y-110061217D01*
X119732951Y-109524690D01*
X119196879Y-108988162D01*
X119631296Y-108554308D01*
X120065714Y-108120455D01*
X120609435Y-108664639D01*
X120609435Y-108664639D01*
G37*
X120609435Y-108664639D02*
X121153155Y-109208822D01*
X120829486Y-109534689D01*
X120714622Y-109649245D01*
X120603004Y-109758613D01*
X120503547Y-109854195D01*
X120425166Y-109927398D01*
X120387420Y-109960886D01*
X120269023Y-110061217D01*
X119732951Y-109524690D01*
X119196879Y-108988162D01*
X119631296Y-108554308D01*
X120065714Y-108120455D01*
X120609435Y-108664639D01*
G36*
X124238064Y-109623676D02*
X124665783Y-110050806D01*
X124128174Y-110588873D01*
X123991446Y-110725275D01*
X123866621Y-110848956D01*
X123758360Y-110955365D01*
X123671322Y-111039952D01*
X123610170Y-111098166D01*
X123579562Y-111125458D01*
X123577080Y-111126939D01*
X123555714Y-111109392D01*
X123503157Y-111060185D01*
X123424717Y-110984466D01*
X123325701Y-110887386D01*
X123211415Y-110774094D01*
X123142743Y-110705507D01*
X122721892Y-110284075D01*
X123266118Y-109740311D01*
X123810345Y-109196547D01*
X124238064Y-109623676D01*
X124238064Y-109623676D01*
G37*
X124238064Y-109623676D02*
X124665783Y-110050806D01*
X124128174Y-110588873D01*
X123991446Y-110725275D01*
X123866621Y-110848956D01*
X123758360Y-110955365D01*
X123671322Y-111039952D01*
X123610170Y-111098166D01*
X123579562Y-111125458D01*
X123577080Y-111126939D01*
X123555714Y-111109392D01*
X123503157Y-111060185D01*
X123424717Y-110984466D01*
X123325701Y-110887386D01*
X123211415Y-110774094D01*
X123142743Y-110705507D01*
X122721892Y-110284075D01*
X123266118Y-109740311D01*
X123810345Y-109196547D01*
X124238064Y-109623676D01*
G36*
X119534813Y-109740471D02*
X120080168Y-110284592D01*
X119653676Y-110705766D01*
X119531450Y-110825574D01*
X119421011Y-110932127D01*
X119327804Y-111020311D01*
X119257273Y-111085012D01*
X119214861Y-111121116D01*
X119205345Y-111126939D01*
X119182132Y-111109285D01*
X119127226Y-111059384D01*
X119045403Y-110981827D01*
X118941437Y-110881204D01*
X118820105Y-110762108D01*
X118686182Y-110629128D01*
X118652583Y-110595542D01*
X118121661Y-110064146D01*
X118555559Y-109630247D01*
X118989457Y-109196349D01*
X119534813Y-109740471D01*
X119534813Y-109740471D01*
G37*
X119534813Y-109740471D02*
X120080168Y-110284592D01*
X119653676Y-110705766D01*
X119531450Y-110825574D01*
X119421011Y-110932127D01*
X119327804Y-111020311D01*
X119257273Y-111085012D01*
X119214861Y-111121116D01*
X119205345Y-111126939D01*
X119182132Y-111109285D01*
X119127226Y-111059384D01*
X119045403Y-110981827D01*
X118941437Y-110881204D01*
X118820105Y-110762108D01*
X118686182Y-110629128D01*
X118652583Y-110595542D01*
X118121661Y-110064146D01*
X118555559Y-109630247D01*
X118989457Y-109196349D01*
X119534813Y-109740471D01*
G36*
X125307095Y-110692900D02*
X125740993Y-111126799D01*
X125210070Y-111658195D01*
X125073613Y-111793895D01*
X124948329Y-111916803D01*
X124839041Y-112022321D01*
X124750572Y-112105851D01*
X124687745Y-112162797D01*
X124655381Y-112188560D01*
X124652698Y-112189592D01*
X124627566Y-112171987D01*
X124571557Y-112122621D01*
X124490165Y-112046672D01*
X124388884Y-111949313D01*
X124273208Y-111835723D01*
X124205396Y-111768160D01*
X123784545Y-111346728D01*
X124328871Y-110802865D01*
X124873196Y-110259002D01*
X125307095Y-110692900D01*
X125307095Y-110692900D01*
G37*
X125307095Y-110692900D02*
X125740993Y-111126799D01*
X125210070Y-111658195D01*
X125073613Y-111793895D01*
X124948329Y-111916803D01*
X124839041Y-112022321D01*
X124750572Y-112105851D01*
X124687745Y-112162797D01*
X124655381Y-112188560D01*
X124652698Y-112189592D01*
X124627566Y-112171987D01*
X124571557Y-112122621D01*
X124490165Y-112046672D01*
X124388884Y-111949313D01*
X124273208Y-111835723D01*
X124205396Y-111768160D01*
X123784545Y-111346728D01*
X124328871Y-110802865D01*
X124873196Y-110259002D01*
X125307095Y-110692900D01*
G36*
X119015456Y-111346728D02*
X118594604Y-111768160D01*
X118473349Y-111888476D01*
X118363466Y-111995408D01*
X118270449Y-112083780D01*
X118199791Y-112148417D01*
X118156986Y-112184142D01*
X118147303Y-112189592D01*
X118122893Y-112171922D01*
X118066874Y-112121975D01*
X117984066Y-112044350D01*
X117879292Y-111943644D01*
X117757375Y-111824455D01*
X117623137Y-111691381D01*
X117589930Y-111658195D01*
X117059008Y-111126799D01*
X117492906Y-110692900D01*
X117926804Y-110259002D01*
X119015456Y-111346728D01*
X119015456Y-111346728D01*
G37*
X119015456Y-111346728D02*
X118594604Y-111768160D01*
X118473349Y-111888476D01*
X118363466Y-111995408D01*
X118270449Y-112083780D01*
X118199791Y-112148417D01*
X118156986Y-112184142D01*
X118147303Y-112189592D01*
X118122893Y-112171922D01*
X118066874Y-112121975D01*
X117984066Y-112044350D01*
X117879292Y-111943644D01*
X117757375Y-111824455D01*
X117623137Y-111691381D01*
X117589930Y-111658195D01*
X117059008Y-111126799D01*
X117492906Y-110692900D01*
X117926804Y-110259002D01*
X119015456Y-111346728D01*
G36*
X125956588Y-111351969D02*
X126010112Y-111400781D01*
X126086883Y-111474369D01*
X126180624Y-111566377D01*
X126285056Y-111670451D01*
X126393899Y-111780236D01*
X126500876Y-111889379D01*
X126599708Y-111991523D01*
X126684117Y-112080316D01*
X126747823Y-112149402D01*
X126784548Y-112192427D01*
X126791021Y-112203100D01*
X126773440Y-112226207D01*
X126724507Y-112279811D01*
X126649933Y-112358170D01*
X126555430Y-112455545D01*
X126446712Y-112566193D01*
X126329489Y-112684373D01*
X126209475Y-112804344D01*
X126092382Y-112920365D01*
X125983922Y-113026695D01*
X125889806Y-113117592D01*
X125815748Y-113187315D01*
X125778227Y-113221031D01*
X125711453Y-113278741D01*
X125289781Y-112850193D01*
X124868108Y-112421646D01*
X125392013Y-111877966D01*
X125525886Y-111739611D01*
X125648261Y-111614232D01*
X125754511Y-111506483D01*
X125840009Y-111421016D01*
X125900129Y-111362485D01*
X125930244Y-111335543D01*
X125932590Y-111334286D01*
X125956588Y-111351969D01*
X125956588Y-111351969D01*
G37*
X125956588Y-111351969D02*
X126010112Y-111400781D01*
X126086883Y-111474369D01*
X126180624Y-111566377D01*
X126285056Y-111670451D01*
X126393899Y-111780236D01*
X126500876Y-111889379D01*
X126599708Y-111991523D01*
X126684117Y-112080316D01*
X126747823Y-112149402D01*
X126784548Y-112192427D01*
X126791021Y-112203100D01*
X126773440Y-112226207D01*
X126724507Y-112279811D01*
X126649933Y-112358170D01*
X126555430Y-112455545D01*
X126446712Y-112566193D01*
X126329489Y-112684373D01*
X126209475Y-112804344D01*
X126092382Y-112920365D01*
X125983922Y-113026695D01*
X125889806Y-113117592D01*
X125815748Y-113187315D01*
X125778227Y-113221031D01*
X125711453Y-113278741D01*
X125289781Y-112850193D01*
X124868108Y-112421646D01*
X125392013Y-111877966D01*
X125525886Y-111739611D01*
X125648261Y-111614232D01*
X125754511Y-111506483D01*
X125840009Y-111421016D01*
X125900129Y-111362485D01*
X125930244Y-111335543D01*
X125932590Y-111334286D01*
X125956588Y-111351969D01*
G36*
X117395608Y-111878567D02*
X117939372Y-112422794D01*
X117512277Y-112850479D01*
X117390842Y-112971527D01*
X117281679Y-113079285D01*
X117190055Y-113168640D01*
X117121234Y-113234482D01*
X117080482Y-113271699D01*
X117071690Y-113278164D01*
X117050626Y-113260544D01*
X116997750Y-113210755D01*
X116917783Y-113133405D01*
X116815447Y-113033100D01*
X116695463Y-112914447D01*
X116562551Y-112782052D01*
X116533590Y-112753085D01*
X116398855Y-112617356D01*
X116276928Y-112492850D01*
X116172430Y-112384422D01*
X116089981Y-112296925D01*
X116034203Y-112235213D01*
X116009716Y-112204141D01*
X116008980Y-112202025D01*
X116026583Y-112177029D01*
X116075943Y-112121145D01*
X116151884Y-112039860D01*
X116249232Y-111938662D01*
X116362812Y-111823035D01*
X116430412Y-111755192D01*
X116851844Y-111334341D01*
X117395608Y-111878567D01*
X117395608Y-111878567D01*
G37*
X117395608Y-111878567D02*
X117939372Y-112422794D01*
X117512277Y-112850479D01*
X117390842Y-112971527D01*
X117281679Y-113079285D01*
X117190055Y-113168640D01*
X117121234Y-113234482D01*
X117080482Y-113271699D01*
X117071690Y-113278164D01*
X117050626Y-113260544D01*
X116997750Y-113210755D01*
X116917783Y-113133405D01*
X116815447Y-113033100D01*
X116695463Y-112914447D01*
X116562551Y-112782052D01*
X116533590Y-112753085D01*
X116398855Y-112617356D01*
X116276928Y-112492850D01*
X116172430Y-112384422D01*
X116089981Y-112296925D01*
X116034203Y-112235213D01*
X116009716Y-112204141D01*
X116008980Y-112202025D01*
X116026583Y-112177029D01*
X116075943Y-112121145D01*
X116151884Y-112039860D01*
X116249232Y-111938662D01*
X116362812Y-111823035D01*
X116430412Y-111755192D01*
X116851844Y-111334341D01*
X117395608Y-111878567D01*
G36*
X127123044Y-112507464D02*
X127179069Y-112563526D01*
X127261836Y-112648404D01*
X127362649Y-112753081D01*
X127472810Y-112868544D01*
X127549364Y-112949404D01*
X127862762Y-113281564D01*
X127333608Y-113811190D01*
X127197991Y-113946479D01*
X127074302Y-114069009D01*
X126967240Y-114174193D01*
X126881504Y-114257445D01*
X126821794Y-114314177D01*
X126792811Y-114339804D01*
X126790963Y-114340817D01*
X126769617Y-114323264D01*
X126717037Y-114274015D01*
X126638488Y-114198181D01*
X126539236Y-114100872D01*
X126424546Y-113987199D01*
X126350377Y-113913132D01*
X125923281Y-113485447D01*
X126466702Y-112941565D01*
X127010122Y-112397682D01*
X127123044Y-112507464D01*
X127123044Y-112507464D01*
G37*
X127123044Y-112507464D02*
X127179069Y-112563526D01*
X127261836Y-112648404D01*
X127362649Y-112753081D01*
X127472810Y-112868544D01*
X127549364Y-112949404D01*
X127862762Y-113281564D01*
X127333608Y-113811190D01*
X127197991Y-113946479D01*
X127074302Y-114069009D01*
X126967240Y-114174193D01*
X126881504Y-114257445D01*
X126821794Y-114314177D01*
X126792811Y-114339804D01*
X126790963Y-114340817D01*
X126769617Y-114323264D01*
X126717037Y-114274015D01*
X126638488Y-114198181D01*
X126539236Y-114100872D01*
X126424546Y-113987199D01*
X126350377Y-113913132D01*
X125923281Y-113485447D01*
X126466702Y-112941565D01*
X127010122Y-112397682D01*
X127123044Y-112507464D01*
G36*
X116320005Y-112954188D02*
X116864231Y-113497952D01*
X116443380Y-113919384D01*
X116322863Y-114039505D01*
X116214645Y-114146296D01*
X116124031Y-114234608D01*
X116056330Y-114299292D01*
X116016848Y-114335199D01*
X116009043Y-114340817D01*
X115988012Y-114323189D01*
X115935105Y-114273340D01*
X115854983Y-114195819D01*
X115752307Y-114095177D01*
X115631736Y-113975963D01*
X115497931Y-113842729D01*
X115457949Y-113802750D01*
X114920341Y-113264684D01*
X115348059Y-112837554D01*
X115775778Y-112410424D01*
X116320005Y-112954188D01*
X116320005Y-112954188D01*
G37*
X116320005Y-112954188D02*
X116864231Y-113497952D01*
X116443380Y-113919384D01*
X116322863Y-114039505D01*
X116214645Y-114146296D01*
X116124031Y-114234608D01*
X116056330Y-114299292D01*
X116016848Y-114335199D01*
X116009043Y-114340817D01*
X115988012Y-114323189D01*
X115935105Y-114273340D01*
X115854983Y-114195819D01*
X115752307Y-114095177D01*
X115631736Y-113975963D01*
X115497931Y-113842729D01*
X115457949Y-113802750D01*
X114920341Y-113264684D01*
X115348059Y-112837554D01*
X115775778Y-112410424D01*
X116320005Y-112954188D01*
G36*
X127342071Y-115397269D02*
X127879652Y-115935308D01*
X127445235Y-116369162D01*
X127010818Y-116803015D01*
X126473236Y-116264976D01*
X125935655Y-115726937D01*
X126370072Y-115293084D01*
X126804489Y-114859230D01*
X127342071Y-115397269D01*
X127342071Y-115397269D01*
G37*
X127342071Y-115397269D02*
X127879652Y-115935308D01*
X127445235Y-116369162D01*
X127010818Y-116803015D01*
X126473236Y-116264976D01*
X125935655Y-115726937D01*
X126370072Y-115293084D01*
X126804489Y-114859230D01*
X127342071Y-115397269D01*
G36*
X116430386Y-115293541D02*
X116864240Y-115727959D01*
X115788162Y-116803121D01*
X115354308Y-116368704D01*
X114920455Y-115934287D01*
X115458494Y-115396706D01*
X115996533Y-114859124D01*
X116430386Y-115293541D01*
X116430386Y-115293541D01*
G37*
X116430386Y-115293541D02*
X116864240Y-115727959D01*
X115788162Y-116803121D01*
X115354308Y-116368704D01*
X114920455Y-115934287D01*
X115458494Y-115396706D01*
X115996533Y-114859124D01*
X116430386Y-115293541D01*
G36*
X126265997Y-116472581D02*
X126803607Y-117010192D01*
X126376435Y-117437953D01*
X126254924Y-117559030D01*
X126145606Y-117666812D01*
X126053760Y-117756185D01*
X125984668Y-117822037D01*
X125943611Y-117859255D01*
X125934627Y-117865715D01*
X125913340Y-117848028D01*
X125860342Y-117798035D01*
X125780323Y-117720332D01*
X125677973Y-117619520D01*
X125557982Y-117500195D01*
X125425040Y-117366957D01*
X125391421Y-117333111D01*
X124862850Y-116800507D01*
X125728386Y-115934971D01*
X126265997Y-116472581D01*
X126265997Y-116472581D01*
G37*
X126265997Y-116472581D02*
X126803607Y-117010192D01*
X126376435Y-117437953D01*
X126254924Y-117559030D01*
X126145606Y-117666812D01*
X126053760Y-117756185D01*
X125984668Y-117822037D01*
X125943611Y-117859255D01*
X125934627Y-117865715D01*
X125913340Y-117848028D01*
X125860342Y-117798035D01*
X125780323Y-117720332D01*
X125677973Y-117619520D01*
X125557982Y-117500195D01*
X125425040Y-117366957D01*
X125391421Y-117333111D01*
X124862850Y-116800507D01*
X125728386Y-115934971D01*
X126265997Y-116472581D01*
G36*
X117939564Y-116802921D02*
X117408642Y-117334318D01*
X117272792Y-117469841D01*
X117148865Y-117592614D01*
X117041551Y-117698056D01*
X116955541Y-117781589D01*
X116895528Y-117838633D01*
X116866202Y-117864611D01*
X116864229Y-117865715D01*
X116842882Y-117848162D01*
X116790302Y-117798913D01*
X116711752Y-117723077D01*
X116612497Y-117625765D01*
X116497802Y-117512088D01*
X116423566Y-117437953D01*
X115996394Y-117010192D01*
X116534004Y-116472581D01*
X117071614Y-115934971D01*
X117939564Y-116802921D01*
X117939564Y-116802921D01*
G37*
X117939564Y-116802921D02*
X117408642Y-117334318D01*
X117272792Y-117469841D01*
X117148865Y-117592614D01*
X117041551Y-117698056D01*
X116955541Y-117781589D01*
X116895528Y-117838633D01*
X116866202Y-117864611D01*
X116864229Y-117865715D01*
X116842882Y-117848162D01*
X116790302Y-117798913D01*
X116711752Y-117723077D01*
X116612497Y-117625765D01*
X116497802Y-117512088D01*
X116423566Y-117437953D01*
X115996394Y-117010192D01*
X116534004Y-116472581D01*
X117071614Y-115934971D01*
X117939564Y-116802921D01*
G36*
X125185144Y-117528776D02*
X125317805Y-117666294D01*
X125437882Y-117792414D01*
X125540806Y-117902205D01*
X125622010Y-117990737D01*
X125676924Y-118053079D01*
X125700981Y-118084300D01*
X125701687Y-118086325D01*
X125684458Y-118110102D01*
X125636623Y-118163757D01*
X125564546Y-118240827D01*
X125474587Y-118334851D01*
X125373110Y-118439368D01*
X125266476Y-118547917D01*
X125161049Y-118654037D01*
X125063190Y-118751266D01*
X124979261Y-118833144D01*
X124915626Y-118893209D01*
X124878646Y-118925000D01*
X124872530Y-118928368D01*
X124851634Y-118910746D01*
X124798884Y-118860933D01*
X124718968Y-118783507D01*
X124616568Y-118683046D01*
X124496372Y-118564128D01*
X124363063Y-118431332D01*
X124328706Y-118396971D01*
X123797783Y-117865574D01*
X124233573Y-117431512D01*
X124669362Y-116997449D01*
X125185144Y-117528776D01*
X125185144Y-117528776D01*
G37*
X125185144Y-117528776D02*
X125317805Y-117666294D01*
X125437882Y-117792414D01*
X125540806Y-117902205D01*
X125622010Y-117990737D01*
X125676924Y-118053079D01*
X125700981Y-118084300D01*
X125701687Y-118086325D01*
X125684458Y-118110102D01*
X125636623Y-118163757D01*
X125564546Y-118240827D01*
X125474587Y-118334851D01*
X125373110Y-118439368D01*
X125266476Y-118547917D01*
X125161049Y-118654037D01*
X125063190Y-118751266D01*
X124979261Y-118833144D01*
X124915626Y-118893209D01*
X124878646Y-118925000D01*
X124872530Y-118928368D01*
X124851634Y-118910746D01*
X124798884Y-118860933D01*
X124718968Y-118783507D01*
X124616568Y-118683046D01*
X124496372Y-118564128D01*
X124363063Y-118431332D01*
X124328706Y-118396971D01*
X123797783Y-117865574D01*
X124233573Y-117431512D01*
X124669362Y-116997449D01*
X125185144Y-117528776D01*
G36*
X119002217Y-117865574D02*
X118471295Y-118396971D01*
X118335445Y-118532494D01*
X118211518Y-118655267D01*
X118104204Y-118760709D01*
X118018194Y-118844242D01*
X117958181Y-118901287D01*
X117928855Y-118927264D01*
X117926882Y-118928368D01*
X117905536Y-118910815D01*
X117852955Y-118861566D01*
X117774405Y-118785730D01*
X117675150Y-118688418D01*
X117560455Y-118574741D01*
X117486219Y-118500606D01*
X117059047Y-118072845D01*
X117596657Y-117535234D01*
X118134267Y-116997624D01*
X119002217Y-117865574D01*
X119002217Y-117865574D01*
G37*
X119002217Y-117865574D02*
X118471295Y-118396971D01*
X118335445Y-118532494D01*
X118211518Y-118655267D01*
X118104204Y-118760709D01*
X118018194Y-118844242D01*
X117958181Y-118901287D01*
X117928855Y-118927264D01*
X117926882Y-118928368D01*
X117905536Y-118910815D01*
X117852955Y-118861566D01*
X117774405Y-118785730D01*
X117675150Y-118688418D01*
X117560455Y-118574741D01*
X117486219Y-118500606D01*
X117059047Y-118072845D01*
X117596657Y-117535234D01*
X118134267Y-116997624D01*
X119002217Y-117865574D01*
G36*
X124665774Y-119149186D02*
X124231357Y-119583039D01*
X123796940Y-120016893D01*
X123259359Y-119478854D01*
X122721777Y-118940815D01*
X123156194Y-118506961D01*
X123590612Y-118073108D01*
X124665774Y-119149186D01*
X124665774Y-119149186D01*
G37*
X124665774Y-119149186D02*
X124231357Y-119583039D01*
X123796940Y-120016893D01*
X123259359Y-119478854D01*
X122721777Y-118940815D01*
X123156194Y-118506961D01*
X123590612Y-118073108D01*
X124665774Y-119149186D01*
G36*
X124164059Y-111908242D02*
X126842858Y-114586948D01*
X124127955Y-117301944D01*
X123815430Y-117614393D01*
X123512906Y-117916674D01*
X123222409Y-118206771D01*
X122945968Y-118482665D01*
X122685608Y-118742338D01*
X122443358Y-118983774D01*
X122221244Y-119204955D01*
X122021294Y-119403862D01*
X121845535Y-119578479D01*
X121695994Y-119726788D01*
X121574699Y-119846772D01*
X121483676Y-119936412D01*
X121424954Y-119993691D01*
X121400558Y-120016591D01*
X121400000Y-120016939D01*
X121380498Y-119998938D01*
X121326389Y-119946280D01*
X121239700Y-119860983D01*
X121122458Y-119745063D01*
X120976690Y-119600538D01*
X120804423Y-119429426D01*
X120607684Y-119233744D01*
X120388500Y-119015509D01*
X120148898Y-118776738D01*
X119890905Y-118519449D01*
X119616548Y-118245660D01*
X119533726Y-118162958D01*
X119844389Y-118162958D01*
X121438551Y-119757742D01*
X122157949Y-119038687D01*
X122316544Y-118879665D01*
X122463029Y-118731814D01*
X122593469Y-118599180D01*
X122703927Y-118485809D01*
X122790466Y-118395748D01*
X122849152Y-118333042D01*
X122876047Y-118301738D01*
X122877347Y-118299207D01*
X122856688Y-118273608D01*
X122836039Y-118262930D01*
X122806511Y-118270484D01*
X122752207Y-118308378D01*
X122670614Y-118378764D01*
X122559216Y-118483794D01*
X122435529Y-118605592D01*
X122076328Y-118964105D01*
X121640970Y-118538108D01*
X121513691Y-118413043D01*
X121395614Y-118296043D01*
X121292909Y-118193297D01*
X121211746Y-118110998D01*
X121158296Y-118055336D01*
X121143253Y-118038682D01*
X121080893Y-117965254D01*
X121408916Y-117636502D01*
X121546718Y-117495081D01*
X121646233Y-117385023D01*
X121708862Y-117304346D01*
X121736007Y-117251066D01*
X121729068Y-117223201D01*
X121704889Y-117217755D01*
X121677137Y-117235291D01*
X121619453Y-117284028D01*
X121538203Y-117358164D01*
X121439755Y-117451894D01*
X121335030Y-117554869D01*
X120997221Y-117891982D01*
X120636493Y-117528468D01*
X120955051Y-117209144D01*
X121070406Y-117092662D01*
X121152761Y-117006778D01*
X121206375Y-116946051D01*
X121235505Y-116905038D01*
X121244410Y-116878297D01*
X121237347Y-116860387D01*
X121231957Y-116855252D01*
X121217479Y-116849711D01*
X121195727Y-116855198D01*
X121163112Y-116874907D01*
X121116049Y-116912034D01*
X121050950Y-116969775D01*
X120964227Y-117051325D01*
X120852294Y-117159879D01*
X120711563Y-117298633D01*
X120538448Y-117470782D01*
X120517347Y-117491821D01*
X119844389Y-118162958D01*
X119533726Y-118162958D01*
X119327854Y-117957387D01*
X119026850Y-117656648D01*
X118715562Y-117345460D01*
X118671421Y-117301319D01*
X117824685Y-116454554D01*
X121788796Y-116454554D01*
X121812613Y-116622915D01*
X121883955Y-116770864D01*
X122002572Y-116898112D01*
X122168219Y-117004369D01*
X122311084Y-117065763D01*
X122460118Y-117120103D01*
X122446112Y-117369797D01*
X122440270Y-117485919D01*
X122440264Y-117565438D01*
X122448905Y-117623500D01*
X122469000Y-117675250D01*
X122503359Y-117735833D01*
X122518655Y-117760915D01*
X122623006Y-117891152D01*
X122749618Y-117983434D01*
X122889831Y-118032945D01*
X123016074Y-118037488D01*
X123119287Y-118014014D01*
X123224804Y-117972852D01*
X123253643Y-117957518D01*
X123409506Y-117836770D01*
X123531060Y-117678943D01*
X123615512Y-117488110D01*
X123640635Y-117392704D01*
X123656018Y-117347442D01*
X123687200Y-117326843D01*
X123750711Y-117321498D01*
X123765859Y-117321429D01*
X123803122Y-117320207D01*
X123836979Y-117313502D01*
X123873236Y-117296756D01*
X123917698Y-117265412D01*
X123976171Y-117214911D01*
X124054461Y-117140696D01*
X124158374Y-117038208D01*
X124274600Y-116922037D01*
X124673368Y-116522646D01*
X124533470Y-116508157D01*
X124449151Y-116499578D01*
X124330685Y-116487725D01*
X124195519Y-116474337D01*
X124092668Y-116464234D01*
X123970789Y-116450880D01*
X123866473Y-116436787D01*
X123791408Y-116423707D01*
X123758277Y-116414104D01*
X123737556Y-116374118D01*
X123730892Y-116297909D01*
X123736712Y-116198678D01*
X123753440Y-116089626D01*
X123779503Y-115983954D01*
X123813328Y-115894864D01*
X123822224Y-115877777D01*
X123860182Y-115805249D01*
X123873051Y-115761679D01*
X123863492Y-115732241D01*
X123850914Y-115717969D01*
X123804544Y-115697523D01*
X123758021Y-115723897D01*
X123713694Y-115792138D01*
X123673914Y-115897288D01*
X123641031Y-116034395D01*
X123617396Y-116198501D01*
X123615901Y-116213419D01*
X123602301Y-116315285D01*
X123584816Y-116371537D01*
X123562216Y-116388368D01*
X123523022Y-116383287D01*
X123447980Y-116369735D01*
X123349061Y-116350244D01*
X123238238Y-116327347D01*
X123127483Y-116303577D01*
X123028767Y-116281468D01*
X122954061Y-116263552D01*
X122915339Y-116252363D01*
X122912706Y-116250938D01*
X122911742Y-116222272D01*
X122919582Y-116158862D01*
X122929079Y-116103822D01*
X122940673Y-115948317D01*
X122909891Y-115819738D01*
X122835409Y-115713361D01*
X122814115Y-115693422D01*
X122706125Y-115621705D01*
X122591681Y-115594163D01*
X122464640Y-115610862D01*
X122318860Y-115671868D01*
X122269623Y-115699365D01*
X122135086Y-115799787D01*
X122012455Y-115931304D01*
X121909475Y-116081749D01*
X121833895Y-116238953D01*
X121793461Y-116390751D01*
X121788796Y-116454554D01*
X117824685Y-116454554D01*
X115955894Y-114585700D01*
X117719201Y-112826315D01*
X117970272Y-112576077D01*
X118210946Y-112336739D01*
X118438698Y-112110781D01*
X118651003Y-111900684D01*
X118845336Y-111708928D01*
X119019173Y-111537994D01*
X119169987Y-111390364D01*
X119295255Y-111268518D01*
X119392451Y-111174937D01*
X119459051Y-111112101D01*
X119492530Y-111082491D01*
X119496065Y-111080487D01*
X119501383Y-111109294D01*
X119508505Y-111182046D01*
X119516846Y-111290908D01*
X119525821Y-111428044D01*
X119534846Y-111585617D01*
X119537457Y-111635338D01*
X119546011Y-111796911D01*
X119554050Y-111939857D01*
X119561101Y-112056478D01*
X119566693Y-112139076D01*
X119570353Y-112179954D01*
X119571015Y-112182944D01*
X119597383Y-112187060D01*
X119667123Y-112194634D01*
X119771945Y-112204855D01*
X119903561Y-112216913D01*
X120041278Y-112228939D01*
X120197262Y-112242610D01*
X120340798Y-112255829D01*
X120461640Y-112267605D01*
X120549540Y-112276943D01*
X120590051Y-112282119D01*
X120674286Y-112295615D01*
X120674286Y-113801519D01*
X120952909Y-113785370D01*
X121084600Y-113777162D01*
X121212440Y-113768207D01*
X121318044Y-113759836D01*
X121363450Y-113755611D01*
X121495370Y-113742002D01*
X121512481Y-114252924D01*
X121518374Y-114455489D01*
X121523713Y-114688459D01*
X121528093Y-114930406D01*
X121531110Y-115159897D01*
X121532176Y-115297485D01*
X121533757Y-115462191D01*
X121536671Y-115612187D01*
X121540628Y-115738646D01*
X121545339Y-115832744D01*
X121550515Y-115885652D01*
X121551614Y-115890636D01*
X121562564Y-115903306D01*
X121578897Y-115877141D01*
X121602060Y-115808443D01*
X121633496Y-115693513D01*
X121642755Y-115657371D01*
X121665885Y-115567692D01*
X121700585Y-115435171D01*
X121744941Y-115267019D01*
X121797041Y-115070444D01*
X121854973Y-114852659D01*
X121888694Y-114726289D01*
X123279082Y-114726289D01*
X124069433Y-115518451D01*
X124235988Y-115685101D01*
X124391185Y-115839833D01*
X124531223Y-115978898D01*
X124652302Y-116098549D01*
X124750621Y-116195036D01*
X124822380Y-116264611D01*
X124863779Y-116303526D01*
X124872555Y-116310613D01*
X124894037Y-116293178D01*
X124946135Y-116244675D01*
X125022928Y-116170801D01*
X125118492Y-116077255D01*
X125226904Y-115969737D01*
X125228947Y-115967699D01*
X125572568Y-115624785D01*
X125399469Y-115450350D01*
X125312422Y-115358093D01*
X125265728Y-115297333D01*
X125258991Y-115267528D01*
X125263543Y-115264838D01*
X125302973Y-115255499D01*
X125381255Y-115238706D01*
X125486375Y-115216987D01*
X125585817Y-115196951D01*
X125808359Y-115144040D01*
X126008291Y-115079615D01*
X126176539Y-115007160D01*
X126304028Y-114930160D01*
X126325777Y-114912896D01*
X126379961Y-114861233D01*
X126395355Y-114826742D01*
X126384617Y-114806105D01*
X126357859Y-114795060D01*
X126311735Y-114805341D01*
X126236913Y-114839872D01*
X126180601Y-114870010D01*
X126096475Y-114912326D01*
X125994643Y-114957786D01*
X125886229Y-115002174D01*
X125782354Y-115041271D01*
X125694141Y-115070858D01*
X125632714Y-115086717D01*
X125610004Y-115086399D01*
X125617981Y-115061768D01*
X125648274Y-115008176D01*
X125678099Y-114961721D01*
X125774633Y-114773746D01*
X125821883Y-114571051D01*
X125823499Y-114382508D01*
X125781375Y-114167771D01*
X125695937Y-113977080D01*
X125571942Y-113815088D01*
X125414147Y-113686445D01*
X125227310Y-113595802D01*
X125016186Y-113547811D01*
X124965193Y-113543327D01*
X124843555Y-113541985D01*
X124728413Y-113555971D01*
X124614587Y-113588399D01*
X124496894Y-113642383D01*
X124370155Y-113721039D01*
X124229187Y-113827481D01*
X124068810Y-113964826D01*
X123883842Y-114136187D01*
X123727186Y-114287607D01*
X123279082Y-114726289D01*
X121888694Y-114726289D01*
X121916824Y-114620874D01*
X121980683Y-114382299D01*
X122002238Y-114301939D01*
X122063364Y-114073921D01*
X122120637Y-113859775D01*
X122172583Y-113665050D01*
X122217728Y-113495293D01*
X122254597Y-113356052D01*
X122281718Y-113252877D01*
X122297615Y-113191315D01*
X122300962Y-113177566D01*
X122314488Y-113115845D01*
X121941479Y-113125729D01*
X121795092Y-113129102D01*
X121692953Y-113129701D01*
X121627513Y-113126840D01*
X121591224Y-113119830D01*
X121576538Y-113107985D01*
X121575585Y-113092436D01*
X121584507Y-113058164D01*
X121606645Y-112980289D01*
X121640230Y-112864830D01*
X121683491Y-112717809D01*
X121734658Y-112545246D01*
X121791962Y-112353159D01*
X121841551Y-112187757D01*
X121901768Y-111986090D01*
X121956431Y-111800596D01*
X122003910Y-111636999D01*
X122042573Y-111501022D01*
X122070791Y-111398390D01*
X122086931Y-111334827D01*
X122089966Y-111315816D01*
X122062048Y-111311318D01*
X121990452Y-111304962D01*
X121883277Y-111297320D01*
X121748624Y-111288966D01*
X121594594Y-111280472D01*
X121578626Y-111279647D01*
X121423061Y-111271134D01*
X121286018Y-111262641D01*
X121175611Y-111254753D01*
X121099958Y-111248054D01*
X121067174Y-111243129D01*
X121066573Y-111242764D01*
X121069607Y-111216397D01*
X121082065Y-111146064D01*
X121102563Y-111038497D01*
X121129715Y-110900428D01*
X121162136Y-110738588D01*
X121198441Y-110559708D01*
X121237244Y-110370520D01*
X121277161Y-110177756D01*
X121316806Y-109988147D01*
X121354795Y-109808425D01*
X121389741Y-109645321D01*
X121420260Y-109505567D01*
X121444967Y-109395894D01*
X121457633Y-109342371D01*
X121485259Y-109229537D01*
X124164059Y-111908242D01*
X124164059Y-111908242D01*
G37*
X124164059Y-111908242D02*
X126842858Y-114586948D01*
X124127955Y-117301944D01*
X123815430Y-117614393D01*
X123512906Y-117916674D01*
X123222409Y-118206771D01*
X122945968Y-118482665D01*
X122685608Y-118742338D01*
X122443358Y-118983774D01*
X122221244Y-119204955D01*
X122021294Y-119403862D01*
X121845535Y-119578479D01*
X121695994Y-119726788D01*
X121574699Y-119846772D01*
X121483676Y-119936412D01*
X121424954Y-119993691D01*
X121400558Y-120016591D01*
X121400000Y-120016939D01*
X121380498Y-119998938D01*
X121326389Y-119946280D01*
X121239700Y-119860983D01*
X121122458Y-119745063D01*
X120976690Y-119600538D01*
X120804423Y-119429426D01*
X120607684Y-119233744D01*
X120388500Y-119015509D01*
X120148898Y-118776738D01*
X119890905Y-118519449D01*
X119616548Y-118245660D01*
X119533726Y-118162958D01*
X119844389Y-118162958D01*
X121438551Y-119757742D01*
X122157949Y-119038687D01*
X122316544Y-118879665D01*
X122463029Y-118731814D01*
X122593469Y-118599180D01*
X122703927Y-118485809D01*
X122790466Y-118395748D01*
X122849152Y-118333042D01*
X122876047Y-118301738D01*
X122877347Y-118299207D01*
X122856688Y-118273608D01*
X122836039Y-118262930D01*
X122806511Y-118270484D01*
X122752207Y-118308378D01*
X122670614Y-118378764D01*
X122559216Y-118483794D01*
X122435529Y-118605592D01*
X122076328Y-118964105D01*
X121640970Y-118538108D01*
X121513691Y-118413043D01*
X121395614Y-118296043D01*
X121292909Y-118193297D01*
X121211746Y-118110998D01*
X121158296Y-118055336D01*
X121143253Y-118038682D01*
X121080893Y-117965254D01*
X121408916Y-117636502D01*
X121546718Y-117495081D01*
X121646233Y-117385023D01*
X121708862Y-117304346D01*
X121736007Y-117251066D01*
X121729068Y-117223201D01*
X121704889Y-117217755D01*
X121677137Y-117235291D01*
X121619453Y-117284028D01*
X121538203Y-117358164D01*
X121439755Y-117451894D01*
X121335030Y-117554869D01*
X120997221Y-117891982D01*
X120636493Y-117528468D01*
X120955051Y-117209144D01*
X121070406Y-117092662D01*
X121152761Y-117006778D01*
X121206375Y-116946051D01*
X121235505Y-116905038D01*
X121244410Y-116878297D01*
X121237347Y-116860387D01*
X121231957Y-116855252D01*
X121217479Y-116849711D01*
X121195727Y-116855198D01*
X121163112Y-116874907D01*
X121116049Y-116912034D01*
X121050950Y-116969775D01*
X120964227Y-117051325D01*
X120852294Y-117159879D01*
X120711563Y-117298633D01*
X120538448Y-117470782D01*
X120517347Y-117491821D01*
X119844389Y-118162958D01*
X119533726Y-118162958D01*
X119327854Y-117957387D01*
X119026850Y-117656648D01*
X118715562Y-117345460D01*
X118671421Y-117301319D01*
X117824685Y-116454554D01*
X121788796Y-116454554D01*
X121812613Y-116622915D01*
X121883955Y-116770864D01*
X122002572Y-116898112D01*
X122168219Y-117004369D01*
X122311084Y-117065763D01*
X122460118Y-117120103D01*
X122446112Y-117369797D01*
X122440270Y-117485919D01*
X122440264Y-117565438D01*
X122448905Y-117623500D01*
X122469000Y-117675250D01*
X122503359Y-117735833D01*
X122518655Y-117760915D01*
X122623006Y-117891152D01*
X122749618Y-117983434D01*
X122889831Y-118032945D01*
X123016074Y-118037488D01*
X123119287Y-118014014D01*
X123224804Y-117972852D01*
X123253643Y-117957518D01*
X123409506Y-117836770D01*
X123531060Y-117678943D01*
X123615512Y-117488110D01*
X123640635Y-117392704D01*
X123656018Y-117347442D01*
X123687200Y-117326843D01*
X123750711Y-117321498D01*
X123765859Y-117321429D01*
X123803122Y-117320207D01*
X123836979Y-117313502D01*
X123873236Y-117296756D01*
X123917698Y-117265412D01*
X123976171Y-117214911D01*
X124054461Y-117140696D01*
X124158374Y-117038208D01*
X124274600Y-116922037D01*
X124673368Y-116522646D01*
X124533470Y-116508157D01*
X124449151Y-116499578D01*
X124330685Y-116487725D01*
X124195519Y-116474337D01*
X124092668Y-116464234D01*
X123970789Y-116450880D01*
X123866473Y-116436787D01*
X123791408Y-116423707D01*
X123758277Y-116414104D01*
X123737556Y-116374118D01*
X123730892Y-116297909D01*
X123736712Y-116198678D01*
X123753440Y-116089626D01*
X123779503Y-115983954D01*
X123813328Y-115894864D01*
X123822224Y-115877777D01*
X123860182Y-115805249D01*
X123873051Y-115761679D01*
X123863492Y-115732241D01*
X123850914Y-115717969D01*
X123804544Y-115697523D01*
X123758021Y-115723897D01*
X123713694Y-115792138D01*
X123673914Y-115897288D01*
X123641031Y-116034395D01*
X123617396Y-116198501D01*
X123615901Y-116213419D01*
X123602301Y-116315285D01*
X123584816Y-116371537D01*
X123562216Y-116388368D01*
X123523022Y-116383287D01*
X123447980Y-116369735D01*
X123349061Y-116350244D01*
X123238238Y-116327347D01*
X123127483Y-116303577D01*
X123028767Y-116281468D01*
X122954061Y-116263552D01*
X122915339Y-116252363D01*
X122912706Y-116250938D01*
X122911742Y-116222272D01*
X122919582Y-116158862D01*
X122929079Y-116103822D01*
X122940673Y-115948317D01*
X122909891Y-115819738D01*
X122835409Y-115713361D01*
X122814115Y-115693422D01*
X122706125Y-115621705D01*
X122591681Y-115594163D01*
X122464640Y-115610862D01*
X122318860Y-115671868D01*
X122269623Y-115699365D01*
X122135086Y-115799787D01*
X122012455Y-115931304D01*
X121909475Y-116081749D01*
X121833895Y-116238953D01*
X121793461Y-116390751D01*
X121788796Y-116454554D01*
X117824685Y-116454554D01*
X115955894Y-114585700D01*
X117719201Y-112826315D01*
X117970272Y-112576077D01*
X118210946Y-112336739D01*
X118438698Y-112110781D01*
X118651003Y-111900684D01*
X118845336Y-111708928D01*
X119019173Y-111537994D01*
X119169987Y-111390364D01*
X119295255Y-111268518D01*
X119392451Y-111174937D01*
X119459051Y-111112101D01*
X119492530Y-111082491D01*
X119496065Y-111080487D01*
X119501383Y-111109294D01*
X119508505Y-111182046D01*
X119516846Y-111290908D01*
X119525821Y-111428044D01*
X119534846Y-111585617D01*
X119537457Y-111635338D01*
X119546011Y-111796911D01*
X119554050Y-111939857D01*
X119561101Y-112056478D01*
X119566693Y-112139076D01*
X119570353Y-112179954D01*
X119571015Y-112182944D01*
X119597383Y-112187060D01*
X119667123Y-112194634D01*
X119771945Y-112204855D01*
X119903561Y-112216913D01*
X120041278Y-112228939D01*
X120197262Y-112242610D01*
X120340798Y-112255829D01*
X120461640Y-112267605D01*
X120549540Y-112276943D01*
X120590051Y-112282119D01*
X120674286Y-112295615D01*
X120674286Y-113801519D01*
X120952909Y-113785370D01*
X121084600Y-113777162D01*
X121212440Y-113768207D01*
X121318044Y-113759836D01*
X121363450Y-113755611D01*
X121495370Y-113742002D01*
X121512481Y-114252924D01*
X121518374Y-114455489D01*
X121523713Y-114688459D01*
X121528093Y-114930406D01*
X121531110Y-115159897D01*
X121532176Y-115297485D01*
X121533757Y-115462191D01*
X121536671Y-115612187D01*
X121540628Y-115738646D01*
X121545339Y-115832744D01*
X121550515Y-115885652D01*
X121551614Y-115890636D01*
X121562564Y-115903306D01*
X121578897Y-115877141D01*
X121602060Y-115808443D01*
X121633496Y-115693513D01*
X121642755Y-115657371D01*
X121665885Y-115567692D01*
X121700585Y-115435171D01*
X121744941Y-115267019D01*
X121797041Y-115070444D01*
X121854973Y-114852659D01*
X121888694Y-114726289D01*
X123279082Y-114726289D01*
X124069433Y-115518451D01*
X124235988Y-115685101D01*
X124391185Y-115839833D01*
X124531223Y-115978898D01*
X124652302Y-116098549D01*
X124750621Y-116195036D01*
X124822380Y-116264611D01*
X124863779Y-116303526D01*
X124872555Y-116310613D01*
X124894037Y-116293178D01*
X124946135Y-116244675D01*
X125022928Y-116170801D01*
X125118492Y-116077255D01*
X125226904Y-115969737D01*
X125228947Y-115967699D01*
X125572568Y-115624785D01*
X125399469Y-115450350D01*
X125312422Y-115358093D01*
X125265728Y-115297333D01*
X125258991Y-115267528D01*
X125263543Y-115264838D01*
X125302973Y-115255499D01*
X125381255Y-115238706D01*
X125486375Y-115216987D01*
X125585817Y-115196951D01*
X125808359Y-115144040D01*
X126008291Y-115079615D01*
X126176539Y-115007160D01*
X126304028Y-114930160D01*
X126325777Y-114912896D01*
X126379961Y-114861233D01*
X126395355Y-114826742D01*
X126384617Y-114806105D01*
X126357859Y-114795060D01*
X126311735Y-114805341D01*
X126236913Y-114839872D01*
X126180601Y-114870010D01*
X126096475Y-114912326D01*
X125994643Y-114957786D01*
X125886229Y-115002174D01*
X125782354Y-115041271D01*
X125694141Y-115070858D01*
X125632714Y-115086717D01*
X125610004Y-115086399D01*
X125617981Y-115061768D01*
X125648274Y-115008176D01*
X125678099Y-114961721D01*
X125774633Y-114773746D01*
X125821883Y-114571051D01*
X125823499Y-114382508D01*
X125781375Y-114167771D01*
X125695937Y-113977080D01*
X125571942Y-113815088D01*
X125414147Y-113686445D01*
X125227310Y-113595802D01*
X125016186Y-113547811D01*
X124965193Y-113543327D01*
X124843555Y-113541985D01*
X124728413Y-113555971D01*
X124614587Y-113588399D01*
X124496894Y-113642383D01*
X124370155Y-113721039D01*
X124229187Y-113827481D01*
X124068810Y-113964826D01*
X123883842Y-114136187D01*
X123727186Y-114287607D01*
X123279082Y-114726289D01*
X121888694Y-114726289D01*
X121916824Y-114620874D01*
X121980683Y-114382299D01*
X122002238Y-114301939D01*
X122063364Y-114073921D01*
X122120637Y-113859775D01*
X122172583Y-113665050D01*
X122217728Y-113495293D01*
X122254597Y-113356052D01*
X122281718Y-113252877D01*
X122297615Y-113191315D01*
X122300962Y-113177566D01*
X122314488Y-113115845D01*
X121941479Y-113125729D01*
X121795092Y-113129102D01*
X121692953Y-113129701D01*
X121627513Y-113126840D01*
X121591224Y-113119830D01*
X121576538Y-113107985D01*
X121575585Y-113092436D01*
X121584507Y-113058164D01*
X121606645Y-112980289D01*
X121640230Y-112864830D01*
X121683491Y-112717809D01*
X121734658Y-112545246D01*
X121791962Y-112353159D01*
X121841551Y-112187757D01*
X121901768Y-111986090D01*
X121956431Y-111800596D01*
X122003910Y-111636999D01*
X122042573Y-111501022D01*
X122070791Y-111398390D01*
X122086931Y-111334827D01*
X122089966Y-111315816D01*
X122062048Y-111311318D01*
X121990452Y-111304962D01*
X121883277Y-111297320D01*
X121748624Y-111288966D01*
X121594594Y-111280472D01*
X121578626Y-111279647D01*
X121423061Y-111271134D01*
X121286018Y-111262641D01*
X121175611Y-111254753D01*
X121099958Y-111248054D01*
X121067174Y-111243129D01*
X121066573Y-111242764D01*
X121069607Y-111216397D01*
X121082065Y-111146064D01*
X121102563Y-111038497D01*
X121129715Y-110900428D01*
X121162136Y-110738588D01*
X121198441Y-110559708D01*
X121237244Y-110370520D01*
X121277161Y-110177756D01*
X121316806Y-109988147D01*
X121354795Y-109808425D01*
X121389741Y-109645321D01*
X121420260Y-109505567D01*
X121444967Y-109395894D01*
X121457633Y-109342371D01*
X121485259Y-109229537D01*
X124164059Y-111908242D01*
G36*
X119235420Y-118116583D02*
X119291304Y-118165943D01*
X119372589Y-118241884D01*
X119473788Y-118339232D01*
X119589414Y-118452812D01*
X119657257Y-118520412D01*
X120078109Y-118941844D01*
X119540074Y-119479422D01*
X119002039Y-120016999D01*
X118134327Y-119148159D01*
X118659385Y-118623569D01*
X118795111Y-118488837D01*
X118919614Y-118366913D01*
X119028040Y-118262418D01*
X119115534Y-118179972D01*
X119177242Y-118124198D01*
X119208311Y-118099715D01*
X119210424Y-118098980D01*
X119235420Y-118116583D01*
X119235420Y-118116583D01*
G37*
X119235420Y-118116583D02*
X119291304Y-118165943D01*
X119372589Y-118241884D01*
X119473788Y-118339232D01*
X119589414Y-118452812D01*
X119657257Y-118520412D01*
X120078109Y-118941844D01*
X119540074Y-119479422D01*
X119002039Y-120016999D01*
X118134327Y-119148159D01*
X118659385Y-118623569D01*
X118795111Y-118488837D01*
X118919614Y-118366913D01*
X119028040Y-118262418D01*
X119115534Y-118179972D01*
X119177242Y-118124198D01*
X119208311Y-118099715D01*
X119210424Y-118098980D01*
X119235420Y-118116583D01*
G36*
X123052218Y-119686558D02*
X123589928Y-120224267D01*
X122734728Y-121079467D01*
X122190476Y-120550295D01*
X121646225Y-120021122D01*
X122080367Y-119584985D01*
X122514509Y-119148849D01*
X123052218Y-119686558D01*
X123052218Y-119686558D01*
G37*
X123052218Y-119686558D02*
X123589928Y-120224267D01*
X122734728Y-121079467D01*
X122190476Y-120550295D01*
X121646225Y-120021122D01*
X122080367Y-119584985D01*
X122514509Y-119148849D01*
X123052218Y-119686558D01*
G36*
X120712982Y-119576145D02*
X121152840Y-120016575D01*
X120958920Y-120213088D01*
X120873735Y-120298090D01*
X120761831Y-120407833D01*
X120634274Y-120531567D01*
X120502127Y-120658543D01*
X120413329Y-120743116D01*
X120061658Y-121076631D01*
X119638124Y-120652513D01*
X119214591Y-120228395D01*
X119320634Y-120103228D01*
X119370307Y-120048045D01*
X119449884Y-119963768D01*
X119552323Y-119857666D01*
X119670584Y-119737006D01*
X119797624Y-119609056D01*
X119849900Y-119556888D01*
X120273123Y-119135715D01*
X120712982Y-119576145D01*
X120712982Y-119576145D01*
G37*
X120712982Y-119576145D02*
X121152840Y-120016575D01*
X120958920Y-120213088D01*
X120873735Y-120298090D01*
X120761831Y-120407833D01*
X120634274Y-120531567D01*
X120502127Y-120658543D01*
X120413329Y-120743116D01*
X120061658Y-121076631D01*
X119638124Y-120652513D01*
X119214591Y-120228395D01*
X119320634Y-120103228D01*
X119370307Y-120048045D01*
X119449884Y-119963768D01*
X119552323Y-119857666D01*
X119670584Y-119737006D01*
X119797624Y-119609056D01*
X119849900Y-119556888D01*
X120273123Y-119135715D01*
X120712982Y-119576145D01*
G04 #@! TO.C,Q4*
D10*
X156434761Y-90857619D02*
X156339523Y-90810000D01*
X156244285Y-90714761D01*
X156101428Y-90571904D01*
X156006190Y-90524285D01*
X155910952Y-90524285D01*
X155958571Y-90762380D02*
X155863333Y-90714761D01*
X155768095Y-90619523D01*
X155720476Y-90429047D01*
X155720476Y-90095714D01*
X155768095Y-89905238D01*
X155863333Y-89810000D01*
X155958571Y-89762380D01*
X156149047Y-89762380D01*
X156244285Y-89810000D01*
X156339523Y-89905238D01*
X156387142Y-90095714D01*
X156387142Y-90429047D01*
X156339523Y-90619523D01*
X156244285Y-90714761D01*
X156149047Y-90762380D01*
X155958571Y-90762380D01*
X157244285Y-90095714D02*
X157244285Y-90762380D01*
X157006190Y-89714761D02*
X156768095Y-90429047D01*
X157387142Y-90429047D01*
G04 #@! TO.C,C1*
X113233333Y-80957142D02*
X113185714Y-81004761D01*
X113042857Y-81052380D01*
X112947619Y-81052380D01*
X112804761Y-81004761D01*
X112709523Y-80909523D01*
X112661904Y-80814285D01*
X112614285Y-80623809D01*
X112614285Y-80480952D01*
X112661904Y-80290476D01*
X112709523Y-80195238D01*
X112804761Y-80100000D01*
X112947619Y-80052380D01*
X113042857Y-80052380D01*
X113185714Y-80100000D01*
X113233333Y-80147619D01*
X114185714Y-81052380D02*
X113614285Y-81052380D01*
X113900000Y-81052380D02*
X113900000Y-80052380D01*
X113804761Y-80195238D01*
X113709523Y-80290476D01*
X113614285Y-80338095D01*
G04 #@! TO.C,C3*
X109183333Y-92357142D02*
X109135714Y-92404761D01*
X108992857Y-92452380D01*
X108897619Y-92452380D01*
X108754761Y-92404761D01*
X108659523Y-92309523D01*
X108611904Y-92214285D01*
X108564285Y-92023809D01*
X108564285Y-91880952D01*
X108611904Y-91690476D01*
X108659523Y-91595238D01*
X108754761Y-91500000D01*
X108897619Y-91452380D01*
X108992857Y-91452380D01*
X109135714Y-91500000D01*
X109183333Y-91547619D01*
X109516666Y-91452380D02*
X110135714Y-91452380D01*
X109802380Y-91833333D01*
X109945238Y-91833333D01*
X110040476Y-91880952D01*
X110088095Y-91928571D01*
X110135714Y-92023809D01*
X110135714Y-92261904D01*
X110088095Y-92357142D01*
X110040476Y-92404761D01*
X109945238Y-92452380D01*
X109659523Y-92452380D01*
X109564285Y-92404761D01*
X109516666Y-92357142D01*
G04 #@! TO.C,C4*
X110033333Y-82757142D02*
X109985714Y-82804761D01*
X109842857Y-82852380D01*
X109747619Y-82852380D01*
X109604761Y-82804761D01*
X109509523Y-82709523D01*
X109461904Y-82614285D01*
X109414285Y-82423809D01*
X109414285Y-82280952D01*
X109461904Y-82090476D01*
X109509523Y-81995238D01*
X109604761Y-81900000D01*
X109747619Y-81852380D01*
X109842857Y-81852380D01*
X109985714Y-81900000D01*
X110033333Y-81947619D01*
X110890476Y-82185714D02*
X110890476Y-82852380D01*
X110652380Y-81804761D02*
X110414285Y-82519047D01*
X111033333Y-82519047D01*
G04 #@! TO.C,C5*
X144833333Y-107507142D02*
X144785714Y-107554761D01*
X144642857Y-107602380D01*
X144547619Y-107602380D01*
X144404761Y-107554761D01*
X144309523Y-107459523D01*
X144261904Y-107364285D01*
X144214285Y-107173809D01*
X144214285Y-107030952D01*
X144261904Y-106840476D01*
X144309523Y-106745238D01*
X144404761Y-106650000D01*
X144547619Y-106602380D01*
X144642857Y-106602380D01*
X144785714Y-106650000D01*
X144833333Y-106697619D01*
X145738095Y-106602380D02*
X145261904Y-106602380D01*
X145214285Y-107078571D01*
X145261904Y-107030952D01*
X145357142Y-106983333D01*
X145595238Y-106983333D01*
X145690476Y-107030952D01*
X145738095Y-107078571D01*
X145785714Y-107173809D01*
X145785714Y-107411904D01*
X145738095Y-107507142D01*
X145690476Y-107554761D01*
X145595238Y-107602380D01*
X145357142Y-107602380D01*
X145261904Y-107554761D01*
X145214285Y-107507142D01*
G04 #@! TO.C,C6*
X106733333Y-105097142D02*
X106685714Y-105144761D01*
X106542857Y-105192380D01*
X106447619Y-105192380D01*
X106304761Y-105144761D01*
X106209523Y-105049523D01*
X106161904Y-104954285D01*
X106114285Y-104763809D01*
X106114285Y-104620952D01*
X106161904Y-104430476D01*
X106209523Y-104335238D01*
X106304761Y-104240000D01*
X106447619Y-104192380D01*
X106542857Y-104192380D01*
X106685714Y-104240000D01*
X106733333Y-104287619D01*
X107590476Y-104192380D02*
X107400000Y-104192380D01*
X107304761Y-104240000D01*
X107257142Y-104287619D01*
X107161904Y-104430476D01*
X107114285Y-104620952D01*
X107114285Y-105001904D01*
X107161904Y-105097142D01*
X107209523Y-105144761D01*
X107304761Y-105192380D01*
X107495238Y-105192380D01*
X107590476Y-105144761D01*
X107638095Y-105097142D01*
X107685714Y-105001904D01*
X107685714Y-104763809D01*
X107638095Y-104668571D01*
X107590476Y-104620952D01*
X107495238Y-104573333D01*
X107304761Y-104573333D01*
X107209523Y-104620952D01*
X107161904Y-104668571D01*
X107114285Y-104763809D01*
G04 #@! TO.C,C7*
X117433333Y-93857142D02*
X117385714Y-93904761D01*
X117242857Y-93952380D01*
X117147619Y-93952380D01*
X117004761Y-93904761D01*
X116909523Y-93809523D01*
X116861904Y-93714285D01*
X116814285Y-93523809D01*
X116814285Y-93380952D01*
X116861904Y-93190476D01*
X116909523Y-93095238D01*
X117004761Y-93000000D01*
X117147619Y-92952380D01*
X117242857Y-92952380D01*
X117385714Y-93000000D01*
X117433333Y-93047619D01*
X117766666Y-92952380D02*
X118433333Y-92952380D01*
X118004761Y-93952380D01*
G04 #@! TO.C,C8*
X136363333Y-71787142D02*
X136315714Y-71834761D01*
X136172857Y-71882380D01*
X136077619Y-71882380D01*
X135934761Y-71834761D01*
X135839523Y-71739523D01*
X135791904Y-71644285D01*
X135744285Y-71453809D01*
X135744285Y-71310952D01*
X135791904Y-71120476D01*
X135839523Y-71025238D01*
X135934761Y-70930000D01*
X136077619Y-70882380D01*
X136172857Y-70882380D01*
X136315714Y-70930000D01*
X136363333Y-70977619D01*
X136934761Y-71310952D02*
X136839523Y-71263333D01*
X136791904Y-71215714D01*
X136744285Y-71120476D01*
X136744285Y-71072857D01*
X136791904Y-70977619D01*
X136839523Y-70930000D01*
X136934761Y-70882380D01*
X137125238Y-70882380D01*
X137220476Y-70930000D01*
X137268095Y-70977619D01*
X137315714Y-71072857D01*
X137315714Y-71120476D01*
X137268095Y-71215714D01*
X137220476Y-71263333D01*
X137125238Y-71310952D01*
X136934761Y-71310952D01*
X136839523Y-71358571D01*
X136791904Y-71406190D01*
X136744285Y-71501428D01*
X136744285Y-71691904D01*
X136791904Y-71787142D01*
X136839523Y-71834761D01*
X136934761Y-71882380D01*
X137125238Y-71882380D01*
X137220476Y-71834761D01*
X137268095Y-71787142D01*
X137315714Y-71691904D01*
X137315714Y-71501428D01*
X137268095Y-71406190D01*
X137220476Y-71358571D01*
X137125238Y-71310952D01*
G04 #@! TO.C,C9*
X144483333Y-98877142D02*
X144435714Y-98924761D01*
X144292857Y-98972380D01*
X144197619Y-98972380D01*
X144054761Y-98924761D01*
X143959523Y-98829523D01*
X143911904Y-98734285D01*
X143864285Y-98543809D01*
X143864285Y-98400952D01*
X143911904Y-98210476D01*
X143959523Y-98115238D01*
X144054761Y-98020000D01*
X144197619Y-97972380D01*
X144292857Y-97972380D01*
X144435714Y-98020000D01*
X144483333Y-98067619D01*
X144959523Y-98972380D02*
X145150000Y-98972380D01*
X145245238Y-98924761D01*
X145292857Y-98877142D01*
X145388095Y-98734285D01*
X145435714Y-98543809D01*
X145435714Y-98162857D01*
X145388095Y-98067619D01*
X145340476Y-98020000D01*
X145245238Y-97972380D01*
X145054761Y-97972380D01*
X144959523Y-98020000D01*
X144911904Y-98067619D01*
X144864285Y-98162857D01*
X144864285Y-98400952D01*
X144911904Y-98496190D01*
X144959523Y-98543809D01*
X145054761Y-98591428D01*
X145245238Y-98591428D01*
X145340476Y-98543809D01*
X145388095Y-98496190D01*
X145435714Y-98400952D01*
G04 #@! TO.C,C10*
X134367142Y-98667142D02*
X134319523Y-98714761D01*
X134176666Y-98762380D01*
X134081428Y-98762380D01*
X133938571Y-98714761D01*
X133843333Y-98619523D01*
X133795714Y-98524285D01*
X133748095Y-98333809D01*
X133748095Y-98190952D01*
X133795714Y-98000476D01*
X133843333Y-97905238D01*
X133938571Y-97810000D01*
X134081428Y-97762380D01*
X134176666Y-97762380D01*
X134319523Y-97810000D01*
X134367142Y-97857619D01*
X135319523Y-98762380D02*
X134748095Y-98762380D01*
X135033809Y-98762380D02*
X135033809Y-97762380D01*
X134938571Y-97905238D01*
X134843333Y-98000476D01*
X134748095Y-98048095D01*
X135938571Y-97762380D02*
X136033809Y-97762380D01*
X136129047Y-97810000D01*
X136176666Y-97857619D01*
X136224285Y-97952857D01*
X136271904Y-98143333D01*
X136271904Y-98381428D01*
X136224285Y-98571904D01*
X136176666Y-98667142D01*
X136129047Y-98714761D01*
X136033809Y-98762380D01*
X135938571Y-98762380D01*
X135843333Y-98714761D01*
X135795714Y-98667142D01*
X135748095Y-98571904D01*
X135700476Y-98381428D01*
X135700476Y-98143333D01*
X135748095Y-97952857D01*
X135795714Y-97857619D01*
X135843333Y-97810000D01*
X135938571Y-97762380D01*
G04 #@! TO.C,J2*
X102466666Y-106252380D02*
X102466666Y-106966666D01*
X102419047Y-107109523D01*
X102323809Y-107204761D01*
X102180952Y-107252380D01*
X102085714Y-107252380D01*
X102895238Y-106347619D02*
X102942857Y-106300000D01*
X103038095Y-106252380D01*
X103276190Y-106252380D01*
X103371428Y-106300000D01*
X103419047Y-106347619D01*
X103466666Y-106442857D01*
X103466666Y-106538095D01*
X103419047Y-106680952D01*
X102847619Y-107252380D01*
X103466666Y-107252380D01*
G04 #@! TO.C,Q3*
X156074761Y-79697619D02*
X155979523Y-79650000D01*
X155884285Y-79554761D01*
X155741428Y-79411904D01*
X155646190Y-79364285D01*
X155550952Y-79364285D01*
X155598571Y-79602380D02*
X155503333Y-79554761D01*
X155408095Y-79459523D01*
X155360476Y-79269047D01*
X155360476Y-78935714D01*
X155408095Y-78745238D01*
X155503333Y-78650000D01*
X155598571Y-78602380D01*
X155789047Y-78602380D01*
X155884285Y-78650000D01*
X155979523Y-78745238D01*
X156027142Y-78935714D01*
X156027142Y-79269047D01*
X155979523Y-79459523D01*
X155884285Y-79554761D01*
X155789047Y-79602380D01*
X155598571Y-79602380D01*
X156360476Y-78602380D02*
X156979523Y-78602380D01*
X156646190Y-78983333D01*
X156789047Y-78983333D01*
X156884285Y-79030952D01*
X156931904Y-79078571D01*
X156979523Y-79173809D01*
X156979523Y-79411904D01*
X156931904Y-79507142D01*
X156884285Y-79554761D01*
X156789047Y-79602380D01*
X156503333Y-79602380D01*
X156408095Y-79554761D01*
X156360476Y-79507142D01*
G04 #@! TO.C,R1*
X104093333Y-86482380D02*
X103760000Y-86006190D01*
X103521904Y-86482380D02*
X103521904Y-85482380D01*
X103902857Y-85482380D01*
X103998095Y-85530000D01*
X104045714Y-85577619D01*
X104093333Y-85672857D01*
X104093333Y-85815714D01*
X104045714Y-85910952D01*
X103998095Y-85958571D01*
X103902857Y-86006190D01*
X103521904Y-86006190D01*
X105045714Y-86482380D02*
X104474285Y-86482380D01*
X104760000Y-86482380D02*
X104760000Y-85482380D01*
X104664761Y-85625238D01*
X104569523Y-85720476D01*
X104474285Y-85768095D01*
G04 #@! TO.C,R2*
X102833333Y-90452380D02*
X102500000Y-89976190D01*
X102261904Y-90452380D02*
X102261904Y-89452380D01*
X102642857Y-89452380D01*
X102738095Y-89500000D01*
X102785714Y-89547619D01*
X102833333Y-89642857D01*
X102833333Y-89785714D01*
X102785714Y-89880952D01*
X102738095Y-89928571D01*
X102642857Y-89976190D01*
X102261904Y-89976190D01*
X103214285Y-89547619D02*
X103261904Y-89500000D01*
X103357142Y-89452380D01*
X103595238Y-89452380D01*
X103690476Y-89500000D01*
X103738095Y-89547619D01*
X103785714Y-89642857D01*
X103785714Y-89738095D01*
X103738095Y-89880952D01*
X103166666Y-90452380D01*
X103785714Y-90452380D01*
G04 #@! TO.C,R3*
X106763333Y-93212380D02*
X106430000Y-92736190D01*
X106191904Y-93212380D02*
X106191904Y-92212380D01*
X106572857Y-92212380D01*
X106668095Y-92260000D01*
X106715714Y-92307619D01*
X106763333Y-92402857D01*
X106763333Y-92545714D01*
X106715714Y-92640952D01*
X106668095Y-92688571D01*
X106572857Y-92736190D01*
X106191904Y-92736190D01*
X107096666Y-92212380D02*
X107715714Y-92212380D01*
X107382380Y-92593333D01*
X107525238Y-92593333D01*
X107620476Y-92640952D01*
X107668095Y-92688571D01*
X107715714Y-92783809D01*
X107715714Y-93021904D01*
X107668095Y-93117142D01*
X107620476Y-93164761D01*
X107525238Y-93212380D01*
X107239523Y-93212380D01*
X107144285Y-93164761D01*
X107096666Y-93117142D01*
G04 #@! TO.C,R4*
X129243333Y-120172380D02*
X128910000Y-119696190D01*
X128671904Y-120172380D02*
X128671904Y-119172380D01*
X129052857Y-119172380D01*
X129148095Y-119220000D01*
X129195714Y-119267619D01*
X129243333Y-119362857D01*
X129243333Y-119505714D01*
X129195714Y-119600952D01*
X129148095Y-119648571D01*
X129052857Y-119696190D01*
X128671904Y-119696190D01*
X130100476Y-119505714D02*
X130100476Y-120172380D01*
X129862380Y-119124761D02*
X129624285Y-119839047D01*
X130243333Y-119839047D01*
G04 #@! TO.C,R5*
X129253333Y-117182380D02*
X128920000Y-116706190D01*
X128681904Y-117182380D02*
X128681904Y-116182380D01*
X129062857Y-116182380D01*
X129158095Y-116230000D01*
X129205714Y-116277619D01*
X129253333Y-116372857D01*
X129253333Y-116515714D01*
X129205714Y-116610952D01*
X129158095Y-116658571D01*
X129062857Y-116706190D01*
X128681904Y-116706190D01*
X130158095Y-116182380D02*
X129681904Y-116182380D01*
X129634285Y-116658571D01*
X129681904Y-116610952D01*
X129777142Y-116563333D01*
X130015238Y-116563333D01*
X130110476Y-116610952D01*
X130158095Y-116658571D01*
X130205714Y-116753809D01*
X130205714Y-116991904D01*
X130158095Y-117087142D01*
X130110476Y-117134761D01*
X130015238Y-117182380D01*
X129777142Y-117182380D01*
X129681904Y-117134761D01*
X129634285Y-117087142D01*
G04 #@! TO.C,R6*
X122633333Y-91652380D02*
X122300000Y-91176190D01*
X122061904Y-91652380D02*
X122061904Y-90652380D01*
X122442857Y-90652380D01*
X122538095Y-90700000D01*
X122585714Y-90747619D01*
X122633333Y-90842857D01*
X122633333Y-90985714D01*
X122585714Y-91080952D01*
X122538095Y-91128571D01*
X122442857Y-91176190D01*
X122061904Y-91176190D01*
X123490476Y-90652380D02*
X123300000Y-90652380D01*
X123204761Y-90700000D01*
X123157142Y-90747619D01*
X123061904Y-90890476D01*
X123014285Y-91080952D01*
X123014285Y-91461904D01*
X123061904Y-91557142D01*
X123109523Y-91604761D01*
X123204761Y-91652380D01*
X123395238Y-91652380D01*
X123490476Y-91604761D01*
X123538095Y-91557142D01*
X123585714Y-91461904D01*
X123585714Y-91223809D01*
X123538095Y-91128571D01*
X123490476Y-91080952D01*
X123395238Y-91033333D01*
X123204761Y-91033333D01*
X123109523Y-91080952D01*
X123061904Y-91128571D01*
X123014285Y-91223809D01*
G04 #@! TO.C,SW1*
X139896666Y-93834761D02*
X140039523Y-93882380D01*
X140277619Y-93882380D01*
X140372857Y-93834761D01*
X140420476Y-93787142D01*
X140468095Y-93691904D01*
X140468095Y-93596666D01*
X140420476Y-93501428D01*
X140372857Y-93453809D01*
X140277619Y-93406190D01*
X140087142Y-93358571D01*
X139991904Y-93310952D01*
X139944285Y-93263333D01*
X139896666Y-93168095D01*
X139896666Y-93072857D01*
X139944285Y-92977619D01*
X139991904Y-92930000D01*
X140087142Y-92882380D01*
X140325238Y-92882380D01*
X140468095Y-92930000D01*
X140801428Y-92882380D02*
X141039523Y-93882380D01*
X141230000Y-93168095D01*
X141420476Y-93882380D01*
X141658571Y-92882380D01*
X142563333Y-93882380D02*
X141991904Y-93882380D01*
X142277619Y-93882380D02*
X142277619Y-92882380D01*
X142182380Y-93025238D01*
X142087142Y-93120476D01*
X141991904Y-93168095D01*
G04 #@! TO.C,U2*
X119738095Y-74952380D02*
X119738095Y-75761904D01*
X119785714Y-75857142D01*
X119833333Y-75904761D01*
X119928571Y-75952380D01*
X120119047Y-75952380D01*
X120214285Y-75904761D01*
X120261904Y-75857142D01*
X120309523Y-75761904D01*
X120309523Y-74952380D01*
X120738095Y-75047619D02*
X120785714Y-75000000D01*
X120880952Y-74952380D01*
X121119047Y-74952380D01*
X121214285Y-75000000D01*
X121261904Y-75047619D01*
X121309523Y-75142857D01*
X121309523Y-75238095D01*
X121261904Y-75380952D01*
X120690476Y-75952380D01*
X121309523Y-75952380D01*
G04 #@! TO.C,U4*
X128618095Y-104462380D02*
X128618095Y-105271904D01*
X128665714Y-105367142D01*
X128713333Y-105414761D01*
X128808571Y-105462380D01*
X128999047Y-105462380D01*
X129094285Y-105414761D01*
X129141904Y-105367142D01*
X129189523Y-105271904D01*
X129189523Y-104462380D01*
X130094285Y-104795714D02*
X130094285Y-105462380D01*
X129856190Y-104414761D02*
X129618095Y-105129047D01*
X130237142Y-105129047D01*
G04 #@! TO.C,U5*
X139098095Y-104652380D02*
X139098095Y-105461904D01*
X139145714Y-105557142D01*
X139193333Y-105604761D01*
X139288571Y-105652380D01*
X139479047Y-105652380D01*
X139574285Y-105604761D01*
X139621904Y-105557142D01*
X139669523Y-105461904D01*
X139669523Y-104652380D01*
X140621904Y-104652380D02*
X140145714Y-104652380D01*
X140098095Y-105128571D01*
X140145714Y-105080952D01*
X140240952Y-105033333D01*
X140479047Y-105033333D01*
X140574285Y-105080952D01*
X140621904Y-105128571D01*
X140669523Y-105223809D01*
X140669523Y-105461904D01*
X140621904Y-105557142D01*
X140574285Y-105604761D01*
X140479047Y-105652380D01*
X140240952Y-105652380D01*
X140145714Y-105604761D01*
X140098095Y-105557142D01*
G04 #@! TO.C,U6*
X123118095Y-73342380D02*
X123118095Y-74151904D01*
X123165714Y-74247142D01*
X123213333Y-74294761D01*
X123308571Y-74342380D01*
X123499047Y-74342380D01*
X123594285Y-74294761D01*
X123641904Y-74247142D01*
X123689523Y-74151904D01*
X123689523Y-73342380D01*
X124594285Y-73342380D02*
X124403809Y-73342380D01*
X124308571Y-73390000D01*
X124260952Y-73437619D01*
X124165714Y-73580476D01*
X124118095Y-73770952D01*
X124118095Y-74151904D01*
X124165714Y-74247142D01*
X124213333Y-74294761D01*
X124308571Y-74342380D01*
X124499047Y-74342380D01*
X124594285Y-74294761D01*
X124641904Y-74247142D01*
X124689523Y-74151904D01*
X124689523Y-73913809D01*
X124641904Y-73818571D01*
X124594285Y-73770952D01*
X124499047Y-73723333D01*
X124308571Y-73723333D01*
X124213333Y-73770952D01*
X124165714Y-73818571D01*
X124118095Y-73913809D01*
G04 #@! TO.C,C2*
X111613333Y-67337142D02*
X111565714Y-67384761D01*
X111422857Y-67432380D01*
X111327619Y-67432380D01*
X111184761Y-67384761D01*
X111089523Y-67289523D01*
X111041904Y-67194285D01*
X110994285Y-67003809D01*
X110994285Y-66860952D01*
X111041904Y-66670476D01*
X111089523Y-66575238D01*
X111184761Y-66480000D01*
X111327619Y-66432380D01*
X111422857Y-66432380D01*
X111565714Y-66480000D01*
X111613333Y-66527619D01*
X111994285Y-66527619D02*
X112041904Y-66480000D01*
X112137142Y-66432380D01*
X112375238Y-66432380D01*
X112470476Y-66480000D01*
X112518095Y-66527619D01*
X112565714Y-66622857D01*
X112565714Y-66718095D01*
X112518095Y-66860952D01*
X111946666Y-67432380D01*
X112565714Y-67432380D01*
G04 #@! TO.C,Q7*
X155744761Y-102207619D02*
X155649523Y-102160000D01*
X155554285Y-102064761D01*
X155411428Y-101921904D01*
X155316190Y-101874285D01*
X155220952Y-101874285D01*
X155268571Y-102112380D02*
X155173333Y-102064761D01*
X155078095Y-101969523D01*
X155030476Y-101779047D01*
X155030476Y-101445714D01*
X155078095Y-101255238D01*
X155173333Y-101160000D01*
X155268571Y-101112380D01*
X155459047Y-101112380D01*
X155554285Y-101160000D01*
X155649523Y-101255238D01*
X155697142Y-101445714D01*
X155697142Y-101779047D01*
X155649523Y-101969523D01*
X155554285Y-102064761D01*
X155459047Y-102112380D01*
X155268571Y-102112380D01*
X156030476Y-101112380D02*
X156697142Y-101112380D01*
X156268571Y-102112380D01*
G04 #@! TO.C,R7*
X122633333Y-87652380D02*
X122300000Y-87176190D01*
X122061904Y-87652380D02*
X122061904Y-86652380D01*
X122442857Y-86652380D01*
X122538095Y-86700000D01*
X122585714Y-86747619D01*
X122633333Y-86842857D01*
X122633333Y-86985714D01*
X122585714Y-87080952D01*
X122538095Y-87128571D01*
X122442857Y-87176190D01*
X122061904Y-87176190D01*
X122966666Y-86652380D02*
X123633333Y-86652380D01*
X123204761Y-87652380D01*
G04 #@! TO.C,R8*
X122623333Y-95652380D02*
X122290000Y-95176190D01*
X122051904Y-95652380D02*
X122051904Y-94652380D01*
X122432857Y-94652380D01*
X122528095Y-94700000D01*
X122575714Y-94747619D01*
X122623333Y-94842857D01*
X122623333Y-94985714D01*
X122575714Y-95080952D01*
X122528095Y-95128571D01*
X122432857Y-95176190D01*
X122051904Y-95176190D01*
X123194761Y-95080952D02*
X123099523Y-95033333D01*
X123051904Y-94985714D01*
X123004285Y-94890476D01*
X123004285Y-94842857D01*
X123051904Y-94747619D01*
X123099523Y-94700000D01*
X123194761Y-94652380D01*
X123385238Y-94652380D01*
X123480476Y-94700000D01*
X123528095Y-94747619D01*
X123575714Y-94842857D01*
X123575714Y-94890476D01*
X123528095Y-94985714D01*
X123480476Y-95033333D01*
X123385238Y-95080952D01*
X123194761Y-95080952D01*
X123099523Y-95128571D01*
X123051904Y-95176190D01*
X123004285Y-95271428D01*
X123004285Y-95461904D01*
X123051904Y-95557142D01*
X123099523Y-95604761D01*
X123194761Y-95652380D01*
X123385238Y-95652380D01*
X123480476Y-95604761D01*
X123528095Y-95557142D01*
X123575714Y-95461904D01*
X123575714Y-95271428D01*
X123528095Y-95176190D01*
X123480476Y-95128571D01*
X123385238Y-95080952D01*
G04 #@! TO.C,U3*
X114438095Y-106852380D02*
X114438095Y-107661904D01*
X114485714Y-107757142D01*
X114533333Y-107804761D01*
X114628571Y-107852380D01*
X114819047Y-107852380D01*
X114914285Y-107804761D01*
X114961904Y-107757142D01*
X115009523Y-107661904D01*
X115009523Y-106852380D01*
X115390476Y-106852380D02*
X116009523Y-106852380D01*
X115676190Y-107233333D01*
X115819047Y-107233333D01*
X115914285Y-107280952D01*
X115961904Y-107328571D01*
X116009523Y-107423809D01*
X116009523Y-107661904D01*
X115961904Y-107757142D01*
X115914285Y-107804761D01*
X115819047Y-107852380D01*
X115533333Y-107852380D01*
X115438095Y-107804761D01*
X115390476Y-107757142D01*
G04 #@! TO.C,U7*
X144988095Y-73462380D02*
X144988095Y-74271904D01*
X145035714Y-74367142D01*
X145083333Y-74414761D01*
X145178571Y-74462380D01*
X145369047Y-74462380D01*
X145464285Y-74414761D01*
X145511904Y-74367142D01*
X145559523Y-74271904D01*
X145559523Y-73462380D01*
X145940476Y-73462380D02*
X146607142Y-73462380D01*
X146178571Y-74462380D01*
G04 #@! TO.C,C11*
X132177142Y-71687142D02*
X132129523Y-71734761D01*
X131986666Y-71782380D01*
X131891428Y-71782380D01*
X131748571Y-71734761D01*
X131653333Y-71639523D01*
X131605714Y-71544285D01*
X131558095Y-71353809D01*
X131558095Y-71210952D01*
X131605714Y-71020476D01*
X131653333Y-70925238D01*
X131748571Y-70830000D01*
X131891428Y-70782380D01*
X131986666Y-70782380D01*
X132129523Y-70830000D01*
X132177142Y-70877619D01*
X133129523Y-71782380D02*
X132558095Y-71782380D01*
X132843809Y-71782380D02*
X132843809Y-70782380D01*
X132748571Y-70925238D01*
X132653333Y-71020476D01*
X132558095Y-71068095D01*
X134081904Y-71782380D02*
X133510476Y-71782380D01*
X133796190Y-71782380D02*
X133796190Y-70782380D01*
X133700952Y-70925238D01*
X133605714Y-71020476D01*
X133510476Y-71068095D01*
G04 #@! TO.C,J3*
X154766666Y-115052380D02*
X154766666Y-115766666D01*
X154719047Y-115909523D01*
X154623809Y-116004761D01*
X154480952Y-116052380D01*
X154385714Y-116052380D01*
X155147619Y-115052380D02*
X155766666Y-115052380D01*
X155433333Y-115433333D01*
X155576190Y-115433333D01*
X155671428Y-115480952D01*
X155719047Y-115528571D01*
X155766666Y-115623809D01*
X155766666Y-115861904D01*
X155719047Y-115957142D01*
X155671428Y-116004761D01*
X155576190Y-116052380D01*
X155290476Y-116052380D01*
X155195238Y-116004761D01*
X155147619Y-115957142D01*
G04 #@! TO.C,J4*
X154766666Y-111252380D02*
X154766666Y-111966666D01*
X154719047Y-112109523D01*
X154623809Y-112204761D01*
X154480952Y-112252380D01*
X154385714Y-112252380D01*
X155671428Y-111585714D02*
X155671428Y-112252380D01*
X155433333Y-111204761D02*
X155195238Y-111919047D01*
X155814285Y-111919047D01*
G04 #@! TO.C,J5*
X165766666Y-76972380D02*
X165766666Y-77686666D01*
X165719047Y-77829523D01*
X165623809Y-77924761D01*
X165480952Y-77972380D01*
X165385714Y-77972380D01*
X166719047Y-76972380D02*
X166242857Y-76972380D01*
X166195238Y-77448571D01*
X166242857Y-77400952D01*
X166338095Y-77353333D01*
X166576190Y-77353333D01*
X166671428Y-77400952D01*
X166719047Y-77448571D01*
X166766666Y-77543809D01*
X166766666Y-77781904D01*
X166719047Y-77877142D01*
X166671428Y-77924761D01*
X166576190Y-77972380D01*
X166338095Y-77972380D01*
X166242857Y-77924761D01*
X166195238Y-77877142D01*
G04 #@! TO.C,J6*
X124226666Y-54492380D02*
X124226666Y-55206666D01*
X124179047Y-55349523D01*
X124083809Y-55444761D01*
X123940952Y-55492380D01*
X123845714Y-55492380D01*
X125131428Y-54492380D02*
X124940952Y-54492380D01*
X124845714Y-54540000D01*
X124798095Y-54587619D01*
X124702857Y-54730476D01*
X124655238Y-54920952D01*
X124655238Y-55301904D01*
X124702857Y-55397142D01*
X124750476Y-55444761D01*
X124845714Y-55492380D01*
X125036190Y-55492380D01*
X125131428Y-55444761D01*
X125179047Y-55397142D01*
X125226666Y-55301904D01*
X125226666Y-55063809D01*
X125179047Y-54968571D01*
X125131428Y-54920952D01*
X125036190Y-54873333D01*
X124845714Y-54873333D01*
X124750476Y-54920952D01*
X124702857Y-54968571D01*
X124655238Y-55063809D01*
G04 #@! TO.C,Q1*
X117504761Y-64147619D02*
X117409523Y-64100000D01*
X117314285Y-64004761D01*
X117171428Y-63861904D01*
X117076190Y-63814285D01*
X116980952Y-63814285D01*
X117028571Y-64052380D02*
X116933333Y-64004761D01*
X116838095Y-63909523D01*
X116790476Y-63719047D01*
X116790476Y-63385714D01*
X116838095Y-63195238D01*
X116933333Y-63100000D01*
X117028571Y-63052380D01*
X117219047Y-63052380D01*
X117314285Y-63100000D01*
X117409523Y-63195238D01*
X117457142Y-63385714D01*
X117457142Y-63719047D01*
X117409523Y-63909523D01*
X117314285Y-64004761D01*
X117219047Y-64052380D01*
X117028571Y-64052380D01*
X118409523Y-64052380D02*
X117838095Y-64052380D01*
X118123809Y-64052380D02*
X118123809Y-63052380D01*
X118028571Y-63195238D01*
X117933333Y-63290476D01*
X117838095Y-63338095D01*
G04 #@! TO.C,Q2*
X127304761Y-64347619D02*
X127209523Y-64300000D01*
X127114285Y-64204761D01*
X126971428Y-64061904D01*
X126876190Y-64014285D01*
X126780952Y-64014285D01*
X126828571Y-64252380D02*
X126733333Y-64204761D01*
X126638095Y-64109523D01*
X126590476Y-63919047D01*
X126590476Y-63585714D01*
X126638095Y-63395238D01*
X126733333Y-63300000D01*
X126828571Y-63252380D01*
X127019047Y-63252380D01*
X127114285Y-63300000D01*
X127209523Y-63395238D01*
X127257142Y-63585714D01*
X127257142Y-63919047D01*
X127209523Y-64109523D01*
X127114285Y-64204761D01*
X127019047Y-64252380D01*
X126828571Y-64252380D01*
X127638095Y-63347619D02*
X127685714Y-63300000D01*
X127780952Y-63252380D01*
X128019047Y-63252380D01*
X128114285Y-63300000D01*
X128161904Y-63347619D01*
X128209523Y-63442857D01*
X128209523Y-63538095D01*
X128161904Y-63680952D01*
X127590476Y-64252380D01*
X128209523Y-64252380D01*
G04 #@! TO.C,Q5*
X136104761Y-64347619D02*
X136009523Y-64300000D01*
X135914285Y-64204761D01*
X135771428Y-64061904D01*
X135676190Y-64014285D01*
X135580952Y-64014285D01*
X135628571Y-64252380D02*
X135533333Y-64204761D01*
X135438095Y-64109523D01*
X135390476Y-63919047D01*
X135390476Y-63585714D01*
X135438095Y-63395238D01*
X135533333Y-63300000D01*
X135628571Y-63252380D01*
X135819047Y-63252380D01*
X135914285Y-63300000D01*
X136009523Y-63395238D01*
X136057142Y-63585714D01*
X136057142Y-63919047D01*
X136009523Y-64109523D01*
X135914285Y-64204761D01*
X135819047Y-64252380D01*
X135628571Y-64252380D01*
X136961904Y-63252380D02*
X136485714Y-63252380D01*
X136438095Y-63728571D01*
X136485714Y-63680952D01*
X136580952Y-63633333D01*
X136819047Y-63633333D01*
X136914285Y-63680952D01*
X136961904Y-63728571D01*
X137009523Y-63823809D01*
X137009523Y-64061904D01*
X136961904Y-64157142D01*
X136914285Y-64204761D01*
X136819047Y-64252380D01*
X136580952Y-64252380D01*
X136485714Y-64204761D01*
X136438095Y-64157142D01*
G04 #@! TO.C,Q6*
X145304761Y-64347619D02*
X145209523Y-64300000D01*
X145114285Y-64204761D01*
X144971428Y-64061904D01*
X144876190Y-64014285D01*
X144780952Y-64014285D01*
X144828571Y-64252380D02*
X144733333Y-64204761D01*
X144638095Y-64109523D01*
X144590476Y-63919047D01*
X144590476Y-63585714D01*
X144638095Y-63395238D01*
X144733333Y-63300000D01*
X144828571Y-63252380D01*
X145019047Y-63252380D01*
X145114285Y-63300000D01*
X145209523Y-63395238D01*
X145257142Y-63585714D01*
X145257142Y-63919047D01*
X145209523Y-64109523D01*
X145114285Y-64204761D01*
X145019047Y-64252380D01*
X144828571Y-64252380D01*
X146114285Y-63252380D02*
X145923809Y-63252380D01*
X145828571Y-63300000D01*
X145780952Y-63347619D01*
X145685714Y-63490476D01*
X145638095Y-63680952D01*
X145638095Y-64061904D01*
X145685714Y-64157142D01*
X145733333Y-64204761D01*
X145828571Y-64252380D01*
X146019047Y-64252380D01*
X146114285Y-64204761D01*
X146161904Y-64157142D01*
X146209523Y-64061904D01*
X146209523Y-63823809D01*
X146161904Y-63728571D01*
X146114285Y-63680952D01*
X146019047Y-63633333D01*
X145828571Y-63633333D01*
X145733333Y-63680952D01*
X145685714Y-63728571D01*
X145638095Y-63823809D01*
G04 #@! TO.C,J7*
X102266666Y-80852380D02*
X102266666Y-81566666D01*
X102219047Y-81709523D01*
X102123809Y-81804761D01*
X101980952Y-81852380D01*
X101885714Y-81852380D01*
X102647619Y-80852380D02*
X103314285Y-80852380D01*
X102885714Y-81852380D01*
G04 #@! TD*
M02*
