M48
;DRILL file {KiCad (5.0.0)} date 03/26/20 00:34:30
;FORMAT={2:4/ absolute / inch / suppress leading zeros}
FMAT,2
INCH,TZ
T1C0.0157
T2C0.0315
T3C0.0394
T4C0.0591
T5C0.0598
T6C0.1260
%
G90
G05
M72
T1
X42283Y-43071
X42720Y-38791
X42787Y-37067
X42866Y-40358
X42933Y-39201
X42937Y-38362
X44638Y-40654
X44811Y-41035
X45878Y-39555
X47110Y-36740
X47299Y-41465
X49213Y-30906
X49213Y-31496
X49213Y-32087
X49445Y-36614
X49925Y-41551
X50157Y-46535
X51587Y-41339
X53311Y-45921
X53323Y-47102
X56102Y-31020
X57319Y-36055
X57319Y-37980
X58583Y-31024
X58583Y-35433
X58583Y-39921
X58976Y-35433
X58976Y-39921
X59055Y-31024
X59370Y-35433
X59370Y-39921
X59449Y-31024
X62992Y-29134
X62992Y-30709
X62992Y-32283
X62992Y-33858
X62992Y-35433
X62992Y-37402
X62992Y-38976
X63701Y-20157
X63780Y-28346
X63780Y-29921
X63780Y-38189
X63780Y-39764
X64567Y-29134
X64567Y-30709
X64567Y-32283
X64567Y-33858
X64567Y-35827
X64567Y-37402
X64567Y-38976
X65354Y-29921
X65354Y-38189
X66142Y-30709
X66142Y-37402
X66929Y-31496
X66929Y-33858
X66929Y-35827
X67165Y-23661
T2
X45472Y-27165
X45472Y-28543
X44500Y-34646
X45878Y-34646
T3
X50555Y-32835
X50555Y-33819
X50555Y-34803
X56264Y-32835
X56264Y-34803
X56000Y-45000
X56000Y-46000
X57000Y-45000
X57000Y-46000
X58000Y-45000
X58000Y-46000
X59000Y-45000
X59000Y-46000
X60000Y-45000
X60000Y-46000
X40350Y-37067
X40350Y-38067
X40350Y-39067
X40350Y-40067
X40350Y-41067
X56000Y-44000
X57000Y-44000
X58000Y-44000
X59000Y-44000
X60000Y-44000
T5
X50512Y-21524
X52512Y-21524
X54512Y-21524
X56512Y-21524
X65819Y-31870
X65819Y-33870
X65819Y-35870
T6
X43701Y-24409
X63189Y-24606
X44685Y-43701
X62992Y-43898
T3
X40394Y-29252G85X40394Y-30039
G05
X41575Y-31496G85X42362Y-31496
G05
X43150Y-29252G85X43150Y-30039
G05
T4
X53724Y-31496G85X53291Y-31496
G05
X53724Y-36142G85X53291Y-36142
G05
T0
M30
