G04 #@! TF.GenerationSoftware,KiCad,Pcbnew,(5.0.0)*
G04 #@! TF.CreationDate,2020-03-26T00:34:20-06:00*
G04 #@! TF.ProjectId,RGB_LEDController,5247425F4C4544436F6E74726F6C6C65,rev?*
G04 #@! TF.SameCoordinates,Original*
G04 #@! TF.FileFunction,Paste,Top*
G04 #@! TF.FilePolarity,Positive*
%FSLAX46Y46*%
G04 Gerber Fmt 4.6, Leading zero omitted, Abs format (unit mm)*
G04 Created by KiCad (PCBNEW (5.0.0)) date 03/26/20 00:34:20*
%MOMM*%
%LPD*%
G01*
G04 APERTURE LIST*
%ADD10R,3.050000X2.750000*%
%ADD11R,2.200000X1.200000*%
%ADD12R,1.600000X1.000000*%
%ADD13R,1.000000X1.600000*%
%ADD14R,1.700000X0.900000*%
%ADD15R,0.900000X1.700000*%
%ADD16R,2.000000X1.500000*%
%ADD17R,2.000000X3.800000*%
%ADD18R,0.600000X1.550000*%
%ADD19R,1.750000X0.450000*%
G04 APERTURE END LIST*
D10*
G04 #@! TO.C,Q4*
X154625000Y-87525000D03*
X157975000Y-84475000D03*
X154625000Y-84475000D03*
X157975000Y-87525000D03*
D11*
X150000000Y-88280000D03*
X150000000Y-83720000D03*
G04 #@! TD*
D12*
G04 #@! TO.C,C1*
X113500000Y-79000000D03*
X113500000Y-76000000D03*
G04 #@! TD*
D13*
G04 #@! TO.C,C4*
X115000000Y-82500000D03*
X112000000Y-82500000D03*
G04 #@! TD*
D12*
G04 #@! TO.C,C5*
X147340000Y-105650000D03*
X147340000Y-108650000D03*
G04 #@! TD*
G04 #@! TO.C,C6*
X106900000Y-99930000D03*
X106900000Y-102930000D03*
G04 #@! TD*
D13*
G04 #@! TO.C,C7*
X112500000Y-93500000D03*
X115500000Y-93500000D03*
G04 #@! TD*
D12*
G04 #@! TO.C,C8*
X136560000Y-76020000D03*
X136560000Y-73020000D03*
G04 #@! TD*
G04 #@! TO.C,C9*
X144650000Y-100220000D03*
X144650000Y-103220000D03*
G04 #@! TD*
G04 #@! TO.C,C10*
X135010000Y-100210000D03*
X135010000Y-103210000D03*
G04 #@! TD*
D11*
G04 #@! TO.C,Q3*
X150000000Y-72520000D03*
X150000000Y-77080000D03*
D10*
X157975000Y-76325000D03*
X154625000Y-73275000D03*
X157975000Y-73275000D03*
X154625000Y-76325000D03*
G04 #@! TD*
D14*
G04 #@! TO.C,R1*
X106500000Y-84550000D03*
X106500000Y-87450000D03*
G04 #@! TD*
D15*
G04 #@! TO.C,R2*
X107950000Y-90000000D03*
X105050000Y-90000000D03*
G04 #@! TD*
D14*
G04 #@! TO.C,R3*
X106920000Y-94160000D03*
X106920000Y-97060000D03*
G04 #@! TD*
D15*
G04 #@! TO.C,R4*
X131150000Y-119630000D03*
X134050000Y-119630000D03*
G04 #@! TD*
G04 #@! TO.C,R5*
X134020000Y-116640000D03*
X131120000Y-116640000D03*
G04 #@! TD*
G04 #@! TO.C,R6*
X124240000Y-89150000D03*
X121340000Y-89150000D03*
G04 #@! TD*
D16*
G04 #@! TO.C,U2*
X117350000Y-77700000D03*
X117350000Y-82300000D03*
X117350000Y-80000000D03*
D17*
X123650000Y-80000000D03*
G04 #@! TD*
D18*
G04 #@! TO.C,U4*
X128495000Y-97760000D03*
X129765000Y-97760000D03*
X131035000Y-97760000D03*
X132305000Y-97760000D03*
X132305000Y-103160000D03*
X131035000Y-103160000D03*
X129765000Y-103160000D03*
X128495000Y-103160000D03*
G04 #@! TD*
G04 #@! TO.C,U5*
X137995000Y-103200000D03*
X139265000Y-103200000D03*
X140535000Y-103200000D03*
X141805000Y-103200000D03*
X141805000Y-97800000D03*
X140535000Y-97800000D03*
X139265000Y-97800000D03*
X137995000Y-97800000D03*
G04 #@! TD*
G04 #@! TO.C,U6*
X125855000Y-76650000D03*
X127125000Y-76650000D03*
X128395000Y-76650000D03*
X129665000Y-76650000D03*
X129665000Y-71250000D03*
X128395000Y-71250000D03*
X127125000Y-71250000D03*
X125855000Y-71250000D03*
G04 #@! TD*
D11*
G04 #@! TO.C,Q7*
X150000000Y-95120000D03*
X150000000Y-99680000D03*
D10*
X157975000Y-98925000D03*
X154625000Y-95875000D03*
X157975000Y-95875000D03*
X154625000Y-98925000D03*
G04 #@! TD*
D15*
G04 #@! TO.C,R7*
X124210000Y-85330000D03*
X121310000Y-85330000D03*
G04 #@! TD*
G04 #@! TO.C,R8*
X121340000Y-93000000D03*
X124240000Y-93000000D03*
G04 #@! TD*
D19*
G04 #@! TO.C,U3*
X118550000Y-105025000D03*
X118550000Y-104375000D03*
X118550000Y-103725000D03*
X118550000Y-103075000D03*
X118550000Y-102425000D03*
X118550000Y-101775000D03*
X118550000Y-101125000D03*
X118550000Y-100475000D03*
X118550000Y-99825000D03*
X118550000Y-99175000D03*
X118550000Y-98525000D03*
X118550000Y-97875000D03*
X118550000Y-97225000D03*
X118550000Y-96575000D03*
X111350000Y-96575000D03*
X111350000Y-97225000D03*
X111350000Y-97875000D03*
X111350000Y-98525000D03*
X111350000Y-99175000D03*
X111350000Y-99825000D03*
X111350000Y-100475000D03*
X111350000Y-101125000D03*
X111350000Y-101775000D03*
X111350000Y-102425000D03*
X111350000Y-103075000D03*
X111350000Y-103725000D03*
X111350000Y-104375000D03*
X111350000Y-105025000D03*
G04 #@! TD*
D18*
G04 #@! TO.C,U7*
X139965000Y-76710000D03*
X141235000Y-76710000D03*
X142505000Y-76710000D03*
X143775000Y-76710000D03*
X143775000Y-71310000D03*
X142505000Y-71310000D03*
X141235000Y-71310000D03*
X139965000Y-71310000D03*
G04 #@! TD*
D12*
G04 #@! TO.C,C11*
X132810000Y-76020000D03*
X132810000Y-73020000D03*
G04 #@! TD*
D18*
G04 #@! TO.C,Q1*
X119635000Y-66440000D03*
X120905000Y-66440000D03*
X122175000Y-66440000D03*
X123445000Y-66440000D03*
X123445000Y-61040000D03*
X122175000Y-61040000D03*
X120905000Y-61040000D03*
X119635000Y-61040000D03*
G04 #@! TD*
G04 #@! TO.C,Q2*
X129405000Y-61110000D03*
X130675000Y-61110000D03*
X131945000Y-61110000D03*
X133215000Y-61110000D03*
X133215000Y-66510000D03*
X131945000Y-66510000D03*
X130675000Y-66510000D03*
X129405000Y-66510000D03*
G04 #@! TD*
G04 #@! TO.C,Q5*
X138295000Y-66500000D03*
X139565000Y-66500000D03*
X140835000Y-66500000D03*
X142105000Y-66500000D03*
X142105000Y-61100000D03*
X140835000Y-61100000D03*
X139565000Y-61100000D03*
X138295000Y-61100000D03*
G04 #@! TD*
G04 #@! TO.C,Q6*
X147495000Y-61100000D03*
X148765000Y-61100000D03*
X150035000Y-61100000D03*
X151305000Y-61100000D03*
X151305000Y-66500000D03*
X150035000Y-66500000D03*
X148765000Y-66500000D03*
X147495000Y-66500000D03*
G04 #@! TD*
M02*
